<?xml version="1.0" encoding="utf-8" standalone="no"?>
<!DOCTYPE svg PUBLIC "-//W3C//DTD SVG 1.1//EN"
  "http://www.w3.org/Graphics/SVG/1.1/DTD/svg11.dtd">
<svg xmlns:xlink="http://www.w3.org/1999/xlink" width="840.638594pt" height="351.53pt" viewBox="0 0 840.638594 351.53" xmlns="http://www.w3.org/2000/svg" version="1.1">
 <metadata>
  <rdf:RDF xmlns:dc="http://purl.org/dc/elements/1.1/" xmlns:cc="http://creativecommons.org/ns#" xmlns:rdf="http://www.w3.org/1999/02/22-rdf-syntax-ns#">
   <cc:Work>
    <dc:type rdf:resource="http://purl.org/dc/dcmitype/StillImage"/>
    <dc:date>2026-04-05T19:48:00.685148</dc:date>
    <dc:format>image/svg+xml</dc:format>
    <dc:creator>
     <cc:Agent>
      <dc:title>Matplotlib v3.10.1, https://matplotlib.org/</dc:title>
     </cc:Agent>
    </dc:creator>
   </cc:Work>
  </rdf:RDF>
 </metadata>
 <defs>
  <style type="text/css">*{stroke-linejoin: round; stroke-linecap: butt}</style>
 </defs>
 <g id="figure_1">
  <g id="patch_1">
   <path d="M 0 351.53 
L 840.638594 351.53 
L 840.638594 0 
L 0 0 
z
" style="fill: #ffffff"/>
  </g>
  <g id="axes_1">
   <g id="patch_2">
    <path d="M 42.999844 312.038125 
L 833.438594 312.038125 
L 833.438594 22.318125 
L 42.999844 22.318125 
z
" style="fill: #ffffff"/>
   </g>
   <g id="matplotlib.axis_1">
    <g id="xtick_1">
     <g id="line2d_1">
      <defs>
       <path id="mb79e8e735c" d="M 0 0 
L 0 3.5 
" style="stroke: #000000; stroke-width: 0.8"/>
      </defs>
      <g>
       <use xlink:href="#mb79e8e735c" x="91.371833" y="312.038125" style="stroke: #000000; stroke-width: 0.8"/>
      </g>
     </g>
     <g id="text_1">
      <!-- 2023-09 -->
      <g transform="translate(68.516755 327.396406) scale(0.11 -0.11)">
       <defs>
        <path id="DejaVuSerif-32" d="M 819 3553 
L 469 3553 
L 469 4384 
Q 803 4563 1142 4656 
Q 1481 4750 1806 4750 
Q 2534 4750 2956 4397 
Q 3378 4044 3378 3438 
Q 3378 2753 2422 1800 
Q 2347 1728 2309 1691 
L 1131 513 
L 3078 513 
L 3078 1088 
L 3444 1088 
L 3444 0 
L 434 0 
L 434 341 
L 1850 1753 
Q 2319 2222 2519 2614 
Q 2719 3006 2719 3438 
Q 2719 3909 2473 4175 
Q 2228 4441 1797 4441 
Q 1350 4441 1106 4219 
Q 863 3997 819 3553 
z
" transform="scale(0.015625)"/>
        <path id="DejaVuSerif-30" d="M 2034 219 
Q 2513 219 2750 744 
Q 2988 1269 2988 2328 
Q 2988 3391 2750 3916 
Q 2513 4441 2034 4441 
Q 1556 4441 1318 3916 
Q 1081 3391 1081 2328 
Q 1081 1269 1318 744 
Q 1556 219 2034 219 
z
M 2034 -91 
Q 1275 -91 848 546 
Q 422 1184 422 2328 
Q 422 3475 848 4112 
Q 1275 4750 2034 4750 
Q 2797 4750 3222 4112 
Q 3647 3475 3647 2328 
Q 3647 1184 3222 546 
Q 2797 -91 2034 -91 
z
" transform="scale(0.015625)"/>
        <path id="DejaVuSerif-33" d="M 622 4469 
Q 988 4606 1323 4678 
Q 1659 4750 1953 4750 
Q 2638 4750 3022 4454 
Q 3406 4159 3406 3634 
Q 3406 3213 3140 2930 
Q 2875 2647 2388 2547 
Q 2963 2466 3280 2130 
Q 3597 1794 3597 1259 
Q 3597 606 3158 257 
Q 2719 -91 1894 -91 
Q 1528 -91 1179 -12 
Q 831 66 488 225 
L 488 1131 
L 838 1131 
Q 869 681 1141 450 
Q 1413 219 1906 219 
Q 2384 219 2661 495 
Q 2938 772 2938 1253 
Q 2938 1803 2653 2086 
Q 2369 2369 1819 2369 
L 1522 2369 
L 1522 2688 
L 1678 2688 
Q 2225 2688 2498 2914 
Q 2772 3141 2772 3597 
Q 2772 4006 2547 4223 
Q 2322 4441 1900 4441 
Q 1478 4441 1245 4241 
Q 1013 4041 972 3647 
L 622 3647 
L 622 4469 
z
" transform="scale(0.015625)"/>
        <path id="DejaVuSerif-2d" d="M 281 1959 
L 1881 1959 
L 1881 1472 
L 281 1472 
L 281 1959 
z
" transform="scale(0.015625)"/>
        <path id="DejaVuSerif-39" d="M 2994 2091 
Q 2784 1856 2512 1740 
Q 2241 1625 1900 1625 
Q 1206 1625 804 2044 
Q 403 2463 403 3188 
Q 403 3897 839 4323 
Q 1275 4750 2003 4750 
Q 2794 4750 3217 4161 
Q 3641 3572 3641 2478 
Q 3641 1253 3137 581 
Q 2634 -91 1722 -91 
Q 1475 -91 1203 -44 
Q 931 3 647 97 
L 647 872 
L 997 872 
Q 1038 556 1241 387 
Q 1444 219 1784 219 
Q 2391 219 2687 676 
Q 2984 1134 2994 2091 
z
M 1978 4441 
Q 1534 4441 1298 4117 
Q 1063 3794 1063 3188 
Q 1063 2581 1298 2256 
Q 1534 1931 1978 1931 
Q 2422 1931 2658 2245 
Q 2894 2559 2894 3150 
Q 2894 3772 2656 4106 
Q 2419 4441 1978 4441 
z
" transform="scale(0.015625)"/>
       </defs>
       <use xlink:href="#DejaVuSerif-32"/>
       <use xlink:href="#DejaVuSerif-30" transform="translate(63.623047 0)"/>
       <use xlink:href="#DejaVuSerif-32" transform="translate(127.246094 0)"/>
       <use xlink:href="#DejaVuSerif-33" transform="translate(190.869141 0)"/>
       <use xlink:href="#DejaVuSerif-2d" transform="translate(254.492188 0)"/>
       <use xlink:href="#DejaVuSerif-30" transform="translate(288.28125 0)"/>
       <use xlink:href="#DejaVuSerif-39" transform="translate(351.904297 0)"/>
      </g>
     </g>
    </g>
    <g id="xtick_2">
     <g id="line2d_2">
      <g>
       <use xlink:href="#mb79e8e735c" x="185.730913" y="312.038125" style="stroke: #000000; stroke-width: 0.8"/>
      </g>
     </g>
     <g id="text_2">
      <!-- 2023-12 -->
      <g transform="translate(162.875835 327.396406) scale(0.11 -0.11)">
       <defs>
        <path id="DejaVuSerif-31" d="M 909 0 
L 909 331 
L 1722 331 
L 1722 4213 
L 781 3603 
L 781 4013 
L 1919 4750 
L 2350 4750 
L 2350 331 
L 3163 331 
L 3163 0 
L 909 0 
z
" transform="scale(0.015625)"/>
       </defs>
       <use xlink:href="#DejaVuSerif-32"/>
       <use xlink:href="#DejaVuSerif-30" transform="translate(63.623047 0)"/>
       <use xlink:href="#DejaVuSerif-32" transform="translate(127.246094 0)"/>
       <use xlink:href="#DejaVuSerif-33" transform="translate(190.869141 0)"/>
       <use xlink:href="#DejaVuSerif-2d" transform="translate(254.492188 0)"/>
       <use xlink:href="#DejaVuSerif-31" transform="translate(288.28125 0)"/>
       <use xlink:href="#DejaVuSerif-32" transform="translate(351.904297 0)"/>
      </g>
     </g>
    </g>
    <g id="xtick_3">
     <g id="line2d_3">
      <g>
       <use xlink:href="#mb79e8e735c" x="280.089992" y="312.038125" style="stroke: #000000; stroke-width: 0.8"/>
      </g>
     </g>
     <g id="text_3">
      <!-- 2024-03 -->
      <g transform="translate(257.234914 327.396406) scale(0.11 -0.11)">
       <defs>
        <path id="DejaVuSerif-34" d="M 2234 1581 
L 2234 4063 
L 641 1581 
L 2234 1581 
z
M 3609 0 
L 1484 0 
L 1484 331 
L 2234 331 
L 2234 1247 
L 197 1247 
L 197 1588 
L 2241 4750 
L 2859 4750 
L 2859 1581 
L 3750 1581 
L 3750 1247 
L 2859 1247 
L 2859 331 
L 3609 331 
L 3609 0 
z
" transform="scale(0.015625)"/>
       </defs>
       <use xlink:href="#DejaVuSerif-32"/>
       <use xlink:href="#DejaVuSerif-30" transform="translate(63.623047 0)"/>
       <use xlink:href="#DejaVuSerif-32" transform="translate(127.246094 0)"/>
       <use xlink:href="#DejaVuSerif-34" transform="translate(190.869141 0)"/>
       <use xlink:href="#DejaVuSerif-2d" transform="translate(254.492188 0)"/>
       <use xlink:href="#DejaVuSerif-30" transform="translate(288.28125 0)"/>
       <use xlink:href="#DejaVuSerif-33" transform="translate(351.904297 0)"/>
      </g>
     </g>
    </g>
    <g id="xtick_4">
     <g id="line2d_4">
      <g>
       <use xlink:href="#mb79e8e735c" x="375.485985" y="312.038125" style="stroke: #000000; stroke-width: 0.8"/>
      </g>
     </g>
     <g id="text_4">
      <!-- 2024-06 -->
      <g transform="translate(352.630906 327.396406) scale(0.11 -0.11)">
       <defs>
        <path id="DejaVuSerif-36" d="M 2094 219 
Q 2534 219 2771 542 
Q 3009 866 3009 1472 
Q 3009 2078 2771 2401 
Q 2534 2725 2094 2725 
Q 1647 2725 1412 2412 
Q 1178 2100 1178 1509 
Q 1178 888 1415 553 
Q 1653 219 2094 219 
z
M 1075 2569 
Q 1288 2803 1556 2918 
Q 1825 3034 2163 3034 
Q 2859 3034 3264 2615 
Q 3669 2197 3669 1472 
Q 3669 763 3233 336 
Q 2797 -91 2069 -91 
Q 1278 -91 853 498 
Q 428 1088 428 2181 
Q 428 3406 931 4078 
Q 1434 4750 2350 4750 
Q 2597 4750 2869 4703 
Q 3141 4656 3425 4563 
L 3425 3794 
L 3072 3794 
Q 3034 4109 2831 4275 
Q 2628 4441 2284 4441 
Q 1678 4441 1381 3981 
Q 1084 3522 1075 2569 
z
" transform="scale(0.015625)"/>
       </defs>
       <use xlink:href="#DejaVuSerif-32"/>
       <use xlink:href="#DejaVuSerif-30" transform="translate(63.623047 0)"/>
       <use xlink:href="#DejaVuSerif-32" transform="translate(127.246094 0)"/>
       <use xlink:href="#DejaVuSerif-34" transform="translate(190.869141 0)"/>
       <use xlink:href="#DejaVuSerif-2d" transform="translate(254.492188 0)"/>
       <use xlink:href="#DejaVuSerif-30" transform="translate(288.28125 0)"/>
       <use xlink:href="#DejaVuSerif-36" transform="translate(351.904297 0)"/>
      </g>
     </g>
    </g>
    <g id="xtick_5">
     <g id="line2d_5">
      <g>
       <use xlink:href="#mb79e8e735c" x="470.881977" y="312.038125" style="stroke: #000000; stroke-width: 0.8"/>
      </g>
     </g>
     <g id="text_5">
      <!-- 2024-09 -->
      <g transform="translate(448.026899 327.396406) scale(0.11 -0.11)">
       <use xlink:href="#DejaVuSerif-32"/>
       <use xlink:href="#DejaVuSerif-30" transform="translate(63.623047 0)"/>
       <use xlink:href="#DejaVuSerif-32" transform="translate(127.246094 0)"/>
       <use xlink:href="#DejaVuSerif-34" transform="translate(190.869141 0)"/>
       <use xlink:href="#DejaVuSerif-2d" transform="translate(254.492188 0)"/>
       <use xlink:href="#DejaVuSerif-30" transform="translate(288.28125 0)"/>
       <use xlink:href="#DejaVuSerif-39" transform="translate(351.904297 0)"/>
      </g>
     </g>
    </g>
    <g id="xtick_6">
     <g id="line2d_6">
      <g>
       <use xlink:href="#mb79e8e735c" x="565.241056" y="312.038125" style="stroke: #000000; stroke-width: 0.8"/>
      </g>
     </g>
     <g id="text_6">
      <!-- 2024-12 -->
      <g transform="translate(542.385978 327.396406) scale(0.11 -0.11)">
       <use xlink:href="#DejaVuSerif-32"/>
       <use xlink:href="#DejaVuSerif-30" transform="translate(63.623047 0)"/>
       <use xlink:href="#DejaVuSerif-32" transform="translate(127.246094 0)"/>
       <use xlink:href="#DejaVuSerif-34" transform="translate(190.869141 0)"/>
       <use xlink:href="#DejaVuSerif-2d" transform="translate(254.492188 0)"/>
       <use xlink:href="#DejaVuSerif-31" transform="translate(288.28125 0)"/>
       <use xlink:href="#DejaVuSerif-32" transform="translate(351.904297 0)"/>
      </g>
     </g>
    </g>
    <g id="xtick_7">
     <g id="line2d_7">
      <g>
       <use xlink:href="#mb79e8e735c" x="658.563223" y="312.038125" style="stroke: #000000; stroke-width: 0.8"/>
      </g>
     </g>
     <g id="text_7">
      <!-- 2025-03 -->
      <g transform="translate(635.708145 327.396406) scale(0.11 -0.11)">
       <defs>
        <path id="DejaVuSerif-35" d="M 3219 4666 
L 3219 4153 
L 1081 4153 
L 1081 2816 
Q 1244 2928 1461 2984 
Q 1678 3041 1947 3041 
Q 2703 3041 3140 2622 
Q 3578 2203 3578 1478 
Q 3578 738 3136 323 
Q 2694 -91 1894 -91 
Q 1572 -91 1234 -12 
Q 897 66 544 225 
L 544 1131 
L 897 1131 
Q 925 688 1179 453 
Q 1434 219 1894 219 
Q 2388 219 2653 544 
Q 2919 869 2919 1478 
Q 2919 2084 2655 2407 
Q 2391 2731 1894 2731 
Q 1613 2731 1398 2631 
Q 1184 2531 1019 2322 
L 750 2322 
L 750 4666 
L 3219 4666 
z
" transform="scale(0.015625)"/>
       </defs>
       <use xlink:href="#DejaVuSerif-32"/>
       <use xlink:href="#DejaVuSerif-30" transform="translate(63.623047 0)"/>
       <use xlink:href="#DejaVuSerif-32" transform="translate(127.246094 0)"/>
       <use xlink:href="#DejaVuSerif-35" transform="translate(190.869141 0)"/>
       <use xlink:href="#DejaVuSerif-2d" transform="translate(254.492188 0)"/>
       <use xlink:href="#DejaVuSerif-30" transform="translate(288.28125 0)"/>
       <use xlink:href="#DejaVuSerif-33" transform="translate(351.904297 0)"/>
      </g>
     </g>
    </g>
    <g id="xtick_8">
     <g id="line2d_8">
      <g>
       <use xlink:href="#mb79e8e735c" x="753.959215" y="312.038125" style="stroke: #000000; stroke-width: 0.8"/>
      </g>
     </g>
     <g id="text_8">
      <!-- 2025-06 -->
      <g transform="translate(731.104137 327.396406) scale(0.11 -0.11)">
       <use xlink:href="#DejaVuSerif-32"/>
       <use xlink:href="#DejaVuSerif-30" transform="translate(63.623047 0)"/>
       <use xlink:href="#DejaVuSerif-32" transform="translate(127.246094 0)"/>
       <use xlink:href="#DejaVuSerif-35" transform="translate(190.869141 0)"/>
       <use xlink:href="#DejaVuSerif-2d" transform="translate(254.492188 0)"/>
       <use xlink:href="#DejaVuSerif-30" transform="translate(288.28125 0)"/>
       <use xlink:href="#DejaVuSerif-36" transform="translate(351.904297 0)"/>
      </g>
     </g>
    </g>
    <g id="text_9">
     <!-- Time -->
     <g transform="translate(424.320547 342.042344) scale(0.11 -0.11)">
      <defs>
       <path id="DejaVuSerif-54" d="M 1222 0 
L 1222 331 
L 1819 331 
L 1819 4294 
L 447 4294 
L 447 3566 
L 63 3566 
L 63 4666 
L 4206 4666 
L 4206 3566 
L 3822 3566 
L 3822 4294 
L 2450 4294 
L 2450 331 
L 3047 331 
L 3047 0 
L 1222 0 
z
" transform="scale(0.015625)"/>
       <path id="DejaVuSerif-69" d="M 622 4353 
Q 622 4497 726 4603 
Q 831 4709 978 4709 
Q 1122 4709 1226 4603 
Q 1331 4497 1331 4353 
Q 1331 4206 1228 4103 
Q 1125 4000 978 4000 
Q 831 4000 726 4103 
Q 622 4206 622 4353 
z
M 1356 331 
L 1900 331 
L 1900 0 
L 231 0 
L 231 331 
L 781 331 
L 781 2988 
L 231 2988 
L 231 3322 
L 1356 3322 
L 1356 331 
z
" transform="scale(0.015625)"/>
       <path id="DejaVuSerif-6d" d="M 3316 2675 
Q 3481 3041 3739 3227 
Q 3997 3413 4341 3413 
Q 4863 3413 5119 3089 
Q 5375 2766 5375 2113 
L 5375 331 
L 5894 331 
L 5894 0 
L 4300 0 
L 4300 331 
L 4800 331 
L 4800 2047 
Q 4800 2556 4650 2772 
Q 4500 2988 4153 2988 
Q 3769 2988 3567 2697 
Q 3366 2406 3366 1850 
L 3366 331 
L 3866 331 
L 3866 0 
L 2291 0 
L 2291 331 
L 2791 331 
L 2791 2069 
Q 2791 2566 2641 2777 
Q 2491 2988 2144 2988 
Q 1759 2988 1557 2697 
Q 1356 2406 1356 1850 
L 1356 331 
L 1856 331 
L 1856 0 
L 263 0 
L 263 331 
L 781 331 
L 781 2994 
L 231 2994 
L 231 3322 
L 1356 3322 
L 1356 2731 
Q 1516 3063 1762 3238 
Q 2009 3413 2322 3413 
Q 2709 3413 2968 3220 
Q 3228 3028 3316 2675 
z
" transform="scale(0.015625)"/>
       <path id="DejaVuSerif-65" d="M 3469 1600 
L 991 1600 
L 991 1575 
Q 991 903 1244 561 
Q 1497 219 1991 219 
Q 2369 219 2611 417 
Q 2853 616 2950 1006 
L 3413 1006 
Q 3275 459 2904 184 
Q 2534 -91 1931 -91 
Q 1203 -91 761 389 
Q 319 869 319 1663 
Q 319 2450 753 2931 
Q 1188 3413 1894 3413 
Q 2647 3413 3050 2948 
Q 3453 2484 3469 1600 
z
M 2791 1931 
Q 2772 2513 2545 2808 
Q 2319 3103 1894 3103 
Q 1497 3103 1269 2806 
Q 1041 2509 991 1931 
L 2791 1931 
z
" transform="scale(0.015625)"/>
      </defs>
      <use xlink:href="#DejaVuSerif-54"/>
      <use xlink:href="#DejaVuSerif-69" transform="translate(66.699219 0)"/>
      <use xlink:href="#DejaVuSerif-6d" transform="translate(98.681641 0)"/>
      <use xlink:href="#DejaVuSerif-65" transform="translate(193.505859 0)"/>
     </g>
    </g>
   </g>
   <g id="matplotlib.axis_2">
    <g id="ytick_1">
     <g id="line2d_9">
      <path d="M 42.999844 310.780875 
L 833.438594 310.780875 
" clip-path="url(#p412613df85)" style="fill: none; stroke-dasharray: 0.6,0.99; stroke-dashoffset: 0; stroke: #b0b0b0; stroke-opacity: 0.6; stroke-width: 0.6"/>
     </g>
     <g id="line2d_10">
      <defs>
       <path id="ma5d647b7c3" d="M 0 0 
L -3.5 0 
" style="stroke: #000000; stroke-width: 0.8"/>
      </defs>
      <g>
       <use xlink:href="#ma5d647b7c3" x="42.999844" y="310.780875" style="stroke: #000000; stroke-width: 0.8"/>
      </g>
     </g>
     <g id="text_10">
      <!-- 45 -->
      <g transform="translate(22.002344 314.960015) scale(0.11 -0.11)">
       <use xlink:href="#DejaVuSerif-34"/>
       <use xlink:href="#DejaVuSerif-35" transform="translate(63.623047 0)"/>
      </g>
     </g>
    </g>
    <g id="ytick_2">
     <g id="line2d_11">
      <path d="M 42.999844 276.158794 
L 833.438594 276.158794 
" clip-path="url(#p412613df85)" style="fill: none; stroke-dasharray: 0.6,0.99; stroke-dashoffset: 0; stroke: #b0b0b0; stroke-opacity: 0.6; stroke-width: 0.6"/>
     </g>
     <g id="line2d_12">
      <g>
       <use xlink:href="#ma5d647b7c3" x="42.999844" y="276.158794" style="stroke: #000000; stroke-width: 0.8"/>
      </g>
     </g>
     <g id="text_11">
      <!-- 50 -->
      <g transform="translate(22.002344 280.337935) scale(0.11 -0.11)">
       <use xlink:href="#DejaVuSerif-35"/>
       <use xlink:href="#DejaVuSerif-30" transform="translate(63.623047 0)"/>
      </g>
     </g>
    </g>
    <g id="ytick_3">
     <g id="line2d_13">
      <path d="M 42.999844 241.536713 
L 833.438594 241.536713 
" clip-path="url(#p412613df85)" style="fill: none; stroke-dasharray: 0.6,0.99; stroke-dashoffset: 0; stroke: #b0b0b0; stroke-opacity: 0.6; stroke-width: 0.6"/>
     </g>
     <g id="line2d_14">
      <g>
       <use xlink:href="#ma5d647b7c3" x="42.999844" y="241.536713" style="stroke: #000000; stroke-width: 0.8"/>
      </g>
     </g>
     <g id="text_12">
      <!-- 55 -->
      <g transform="translate(22.002344 245.715854) scale(0.11 -0.11)">
       <use xlink:href="#DejaVuSerif-35"/>
       <use xlink:href="#DejaVuSerif-35" transform="translate(63.623047 0)"/>
      </g>
     </g>
    </g>
    <g id="ytick_4">
     <g id="line2d_15">
      <path d="M 42.999844 206.914633 
L 833.438594 206.914633 
" clip-path="url(#p412613df85)" style="fill: none; stroke-dasharray: 0.6,0.99; stroke-dashoffset: 0; stroke: #b0b0b0; stroke-opacity: 0.6; stroke-width: 0.6"/>
     </g>
     <g id="line2d_16">
      <g>
       <use xlink:href="#ma5d647b7c3" x="42.999844" y="206.914633" style="stroke: #000000; stroke-width: 0.8"/>
      </g>
     </g>
     <g id="text_13">
      <!-- 60 -->
      <g transform="translate(22.002344 211.093773) scale(0.11 -0.11)">
       <use xlink:href="#DejaVuSerif-36"/>
       <use xlink:href="#DejaVuSerif-30" transform="translate(63.623047 0)"/>
      </g>
     </g>
    </g>
    <g id="ytick_5">
     <g id="line2d_17">
      <path d="M 42.999844 172.292552 
L 833.438594 172.292552 
" clip-path="url(#p412613df85)" style="fill: none; stroke-dasharray: 0.6,0.99; stroke-dashoffset: 0; stroke: #b0b0b0; stroke-opacity: 0.6; stroke-width: 0.6"/>
     </g>
     <g id="line2d_18">
      <g>
       <use xlink:href="#ma5d647b7c3" x="42.999844" y="172.292552" style="stroke: #000000; stroke-width: 0.8"/>
      </g>
     </g>
     <g id="text_14">
      <!-- 65 -->
      <g transform="translate(22.002344 176.471693) scale(0.11 -0.11)">
       <use xlink:href="#DejaVuSerif-36"/>
       <use xlink:href="#DejaVuSerif-35" transform="translate(63.623047 0)"/>
      </g>
     </g>
    </g>
    <g id="ytick_6">
     <g id="line2d_19">
      <path d="M 42.999844 137.670471 
L 833.438594 137.670471 
" clip-path="url(#p412613df85)" style="fill: none; stroke-dasharray: 0.6,0.99; stroke-dashoffset: 0; stroke: #b0b0b0; stroke-opacity: 0.6; stroke-width: 0.6"/>
     </g>
     <g id="line2d_20">
      <g>
       <use xlink:href="#ma5d647b7c3" x="42.999844" y="137.670471" style="stroke: #000000; stroke-width: 0.8"/>
      </g>
     </g>
     <g id="text_15">
      <!-- 70 -->
      <g transform="translate(22.002344 141.849612) scale(0.11 -0.11)">
       <defs>
        <path id="DejaVuSerif-37" d="M 3609 4347 
L 1784 0 
L 1319 0 
L 3059 4153 
L 903 4153 
L 903 3578 
L 538 3578 
L 538 4666 
L 3609 4666 
L 3609 4347 
z
" transform="scale(0.015625)"/>
       </defs>
       <use xlink:href="#DejaVuSerif-37"/>
       <use xlink:href="#DejaVuSerif-30" transform="translate(63.623047 0)"/>
      </g>
     </g>
    </g>
    <g id="ytick_7">
     <g id="line2d_21">
      <path d="M 42.999844 103.048391 
L 833.438594 103.048391 
" clip-path="url(#p412613df85)" style="fill: none; stroke-dasharray: 0.6,0.99; stroke-dashoffset: 0; stroke: #b0b0b0; stroke-opacity: 0.6; stroke-width: 0.6"/>
     </g>
     <g id="line2d_22">
      <g>
       <use xlink:href="#ma5d647b7c3" x="42.999844" y="103.048391" style="stroke: #000000; stroke-width: 0.8"/>
      </g>
     </g>
     <g id="text_16">
      <!-- 75 -->
      <g transform="translate(22.002344 107.227531) scale(0.11 -0.11)">
       <use xlink:href="#DejaVuSerif-37"/>
       <use xlink:href="#DejaVuSerif-35" transform="translate(63.623047 0)"/>
      </g>
     </g>
    </g>
    <g id="ytick_8">
     <g id="line2d_23">
      <path d="M 42.999844 68.42631 
L 833.438594 68.42631 
" clip-path="url(#p412613df85)" style="fill: none; stroke-dasharray: 0.6,0.99; stroke-dashoffset: 0; stroke: #b0b0b0; stroke-opacity: 0.6; stroke-width: 0.6"/>
     </g>
     <g id="line2d_24">
      <g>
       <use xlink:href="#ma5d647b7c3" x="42.999844" y="68.42631" style="stroke: #000000; stroke-width: 0.8"/>
      </g>
     </g>
     <g id="text_17">
      <!-- 80 -->
      <g transform="translate(22.002344 72.605451) scale(0.11 -0.11)">
       <defs>
        <path id="DejaVuSerif-38" d="M 2981 1275 
Q 2981 1775 2732 2051 
Q 2484 2328 2034 2328 
Q 1584 2328 1336 2051 
Q 1088 1775 1088 1275 
Q 1088 772 1336 495 
Q 1584 219 2034 219 
Q 2484 219 2732 495 
Q 2981 772 2981 1275 
z
M 2853 3541 
Q 2853 3966 2637 4203 
Q 2422 4441 2034 4441 
Q 1650 4441 1433 4203 
Q 1216 3966 1216 3541 
Q 1216 3113 1433 2875 
Q 1650 2638 2034 2638 
Q 2422 2638 2637 2875 
Q 2853 3113 2853 3541 
z
M 2516 2484 
Q 3047 2413 3344 2092 
Q 3641 1772 3641 1275 
Q 3641 619 3225 264 
Q 2809 -91 2034 -91 
Q 1263 -91 845 264 
Q 428 619 428 1275 
Q 428 1772 725 2092 
Q 1022 2413 1556 2484 
Q 1084 2569 832 2842 
Q 581 3116 581 3541 
Q 581 4103 968 4426 
Q 1356 4750 2034 4750 
Q 2713 4750 3100 4426 
Q 3488 4103 3488 3541 
Q 3488 3116 3236 2842 
Q 2984 2569 2516 2484 
z
" transform="scale(0.015625)"/>
       </defs>
       <use xlink:href="#DejaVuSerif-38"/>
       <use xlink:href="#DejaVuSerif-30" transform="translate(63.623047 0)"/>
      </g>
     </g>
    </g>
    <g id="ytick_9">
     <g id="line2d_25">
      <path d="M 42.999844 33.804229 
L 833.438594 33.804229 
" clip-path="url(#p412613df85)" style="fill: none; stroke-dasharray: 0.6,0.99; stroke-dashoffset: 0; stroke: #b0b0b0; stroke-opacity: 0.6; stroke-width: 0.6"/>
     </g>
     <g id="line2d_26">
      <g>
       <use xlink:href="#ma5d647b7c3" x="42.999844" y="33.804229" style="stroke: #000000; stroke-width: 0.8"/>
      </g>
     </g>
     <g id="text_18">
      <!-- 85 -->
      <g transform="translate(22.002344 37.98337) scale(0.11 -0.11)">
       <use xlink:href="#DejaVuSerif-38"/>
       <use xlink:href="#DejaVuSerif-35" transform="translate(63.623047 0)"/>
      </g>
     </g>
    </g>
    <g id="text_19">
     <!-- Rolling SMAPE (%) -->
     <g transform="translate(15.558281 221.07125) rotate(-90) scale(0.11 -0.11)">
      <defs>
       <path id="DejaVuSerif-52" d="M 3066 2316 
Q 3284 2256 3442 2114 
Q 3600 1972 3725 1716 
L 4403 331 
L 4972 331 
L 4972 0 
L 3872 0 
L 3144 1484 
Q 2934 1916 2759 2042 
Q 2584 2169 2278 2169 
L 1581 2169 
L 1581 331 
L 2241 331 
L 2241 0 
L 353 0 
L 353 331 
L 947 331 
L 947 4331 
L 353 4331 
L 353 4666 
L 2719 4666 
Q 3400 4666 3770 4341 
Q 4141 4016 4141 3419 
Q 4141 2938 3870 2661 
Q 3600 2384 3066 2316 
z
M 1581 2503 
L 2503 2503 
Q 2975 2503 3200 2726 
Q 3425 2950 3425 3419 
Q 3425 3888 3200 4109 
Q 2975 4331 2503 4331 
L 1581 4331 
L 1581 2503 
z
" transform="scale(0.015625)"/>
       <path id="DejaVuSerif-6f" d="M 1925 219 
Q 2388 219 2623 584 
Q 2859 950 2859 1663 
Q 2859 2375 2623 2739 
Q 2388 3103 1925 3103 
Q 1463 3103 1227 2739 
Q 991 2375 991 1663 
Q 991 950 1228 584 
Q 1466 219 1925 219 
z
M 1925 -91 
Q 1200 -91 759 389 
Q 319 869 319 1663 
Q 319 2456 758 2934 
Q 1197 3413 1925 3413 
Q 2653 3413 3092 2934 
Q 3531 2456 3531 1663 
Q 3531 869 3092 389 
Q 2653 -91 1925 -91 
z
" transform="scale(0.015625)"/>
       <path id="DejaVuSerif-6c" d="M 1313 331 
L 1856 331 
L 1856 0 
L 184 0 
L 184 331 
L 738 331 
L 738 4531 
L 184 4531 
L 184 4863 
L 1313 4863 
L 1313 331 
z
" transform="scale(0.015625)"/>
       <path id="DejaVuSerif-6e" d="M 263 0 
L 263 331 
L 781 331 
L 781 2988 
L 231 2988 
L 231 3322 
L 1356 3322 
L 1356 2731 
Q 1516 3069 1770 3241 
Q 2025 3413 2363 3413 
Q 2913 3413 3172 3097 
Q 3431 2781 3431 2113 
L 3431 331 
L 3944 331 
L 3944 0 
L 2356 0 
L 2356 331 
L 2853 331 
L 2853 1931 
Q 2853 2541 2703 2767 
Q 2553 2994 2175 2994 
Q 1775 2994 1565 2701 
Q 1356 2409 1356 1850 
L 1356 331 
L 1856 331 
L 1856 0 
L 263 0 
z
" transform="scale(0.015625)"/>
       <path id="DejaVuSerif-67" d="M 3359 2988 
L 3359 72 
Q 3359 -644 2965 -1033 
Q 2572 -1422 1844 -1422 
Q 1516 -1422 1216 -1362 
Q 916 -1303 641 -1184 
L 641 -488 
L 941 -488 
Q 997 -813 1206 -963 
Q 1416 -1113 1806 -1113 
Q 2313 -1113 2548 -827 
Q 2784 -541 2784 72 
L 2784 519 
Q 2616 206 2355 57 
Q 2094 -91 1709 -91 
Q 1097 -91 708 395 
Q 319 881 319 1663 
Q 319 2444 706 2928 
Q 1094 3413 1709 3413 
Q 2094 3413 2355 3264 
Q 2616 3116 2784 2803 
L 2784 3322 
L 3909 3322 
L 3909 2988 
L 3359 2988 
z
M 2784 1825 
Q 2784 2422 2554 2737 
Q 2325 3053 1888 3053 
Q 1444 3053 1217 2703 
Q 991 2353 991 1663 
Q 991 975 1217 622 
Q 1444 269 1888 269 
Q 2325 269 2554 583 
Q 2784 897 2784 1497 
L 2784 1825 
z
" transform="scale(0.015625)"/>
       <path id="DejaVuSerif-20" transform="scale(0.015625)"/>
       <path id="DejaVuSerif-53" d="M 594 225 
L 594 1288 
L 953 1284 
Q 969 753 1261 498 
Q 1553 244 2150 244 
Q 2706 244 2998 464 
Q 3291 684 3291 1106 
Q 3291 1444 3114 1625 
Q 2938 1806 2369 1978 
L 1753 2163 
Q 1084 2366 811 2669 
Q 538 2972 538 3500 
Q 538 4094 959 4422 
Q 1381 4750 2144 4750 
Q 2469 4750 2856 4679 
Q 3244 4609 3681 4475 
L 3681 3481 
L 3328 3481 
Q 3275 3975 2998 4195 
Q 2722 4416 2156 4416 
Q 1663 4416 1405 4214 
Q 1147 4013 1147 3628 
Q 1147 3294 1340 3103 
Q 1534 2913 2163 2725 
L 2741 2553 
Q 3375 2363 3645 2067 
Q 3916 1772 3916 1275 
Q 3916 597 3481 253 
Q 3047 -91 2188 -91 
Q 1803 -91 1404 -12 
Q 1006 66 594 225 
z
" transform="scale(0.015625)"/>
       <path id="DejaVuSerif-4d" d="M 353 0 
L 353 331 
L 947 331 
L 947 4331 
L 319 4331 
L 319 4666 
L 1678 4666 
L 3316 1344 
L 4953 4666 
L 6228 4666 
L 6228 4331 
L 5606 4331 
L 5606 331 
L 6203 331 
L 6203 0 
L 4378 0 
L 4378 331 
L 4972 331 
L 4972 3938 
L 3372 684 
L 2931 684 
L 1331 3938 
L 1331 331 
L 1925 331 
L 1925 0 
L 353 0 
z
" transform="scale(0.015625)"/>
       <path id="DejaVuSerif-41" d="M 1281 1691 
L 2994 1691 
L 2138 3909 
L 1281 1691 
z
M -38 0 
L -38 331 
L 372 331 
L 2034 4666 
L 2559 4666 
L 4225 331 
L 4684 331 
L 4684 0 
L 2988 0 
L 2988 331 
L 3506 331 
L 3116 1356 
L 1153 1356 
L 763 331 
L 1275 331 
L 1275 0 
L -38 0 
z
" transform="scale(0.015625)"/>
       <path id="DejaVuSerif-50" d="M 1581 2375 
L 2406 2375 
Q 2872 2375 3115 2626 
Q 3359 2878 3359 3353 
Q 3359 3831 3115 4081 
Q 2872 4331 2406 4331 
L 1581 4331 
L 1581 2375 
z
M 353 0 
L 353 331 
L 947 331 
L 947 4331 
L 353 4331 
L 353 4666 
L 2559 4666 
Q 3259 4666 3668 4311 
Q 4078 3956 4078 3353 
Q 4078 2753 3668 2397 
Q 3259 2041 2559 2041 
L 1581 2041 
L 1581 331 
L 2303 331 
L 2303 0 
L 353 0 
z
" transform="scale(0.015625)"/>
       <path id="DejaVuSerif-45" d="M 353 0 
L 353 331 
L 947 331 
L 947 4331 
L 353 4331 
L 353 4666 
L 4109 4666 
L 4109 3628 
L 3725 3628 
L 3725 4281 
L 1581 4281 
L 1581 2719 
L 3109 2719 
L 3109 3303 
L 3494 3303 
L 3494 1753 
L 3109 1753 
L 3109 2338 
L 1581 2338 
L 1581 384 
L 3775 384 
L 3775 1038 
L 4159 1038 
L 4159 0 
L 353 0 
z
" transform="scale(0.015625)"/>
       <path id="DejaVuSerif-28" d="M 2041 -997 
Q 1281 -656 893 83 
Q 506 822 506 1931 
Q 506 3044 893 3783 
Q 1281 4522 2041 4863 
L 2041 4556 
Q 1559 4225 1350 3623 
Q 1141 3022 1141 1931 
Q 1141 844 1350 242 
Q 1559 -359 2041 -691 
L 2041 -997 
z
" transform="scale(0.015625)"/>
       <path id="DejaVuSerif-25" d="M 1434 4459 
Q 1159 4459 1004 4200 
Q 850 3941 850 3475 
Q 850 3016 1008 2753 
Q 1166 2491 1434 2491 
Q 1700 2491 1854 2752 
Q 2009 3013 2009 3475 
Q 2009 3938 1854 4198 
Q 1700 4459 1434 4459 
z
M 4653 2169 
Q 4381 2169 4226 1906 
Q 4072 1644 4072 1178 
Q 4072 719 4228 458 
Q 4384 197 4653 197 
Q 4922 197 5075 458 
Q 5228 719 5228 1178 
Q 5228 1641 5073 1905 
Q 4919 2169 4653 2169 
z
M 4653 2450 
Q 5147 2450 5437 2106 
Q 5728 1763 5728 1178 
Q 5728 594 5436 251 
Q 5144 -91 4653 -91 
Q 4153 -91 3862 251 
Q 3572 594 3572 1178 
Q 3572 1766 3864 2108 
Q 4156 2450 4653 2450 
z
M 4263 4750 
L 4738 4750 
L 1819 -91 
L 1344 -91 
L 4263 4750 
z
M 1428 4750 
Q 1922 4750 2215 4408 
Q 2509 4066 2509 3481 
Q 2509 2891 2217 2550 
Q 1925 2209 1428 2209 
Q 931 2209 642 2551 
Q 353 2894 353 3481 
Q 353 4063 643 4406 
Q 934 4750 1428 4750 
z
" transform="scale(0.015625)"/>
       <path id="DejaVuSerif-29" d="M 453 -997 
L 453 -691 
Q 934 -359 1145 242 
Q 1356 844 1356 1931 
Q 1356 3022 1145 3623 
Q 934 4225 453 4556 
L 453 4863 
Q 1216 4522 1603 3783 
Q 1991 3044 1991 1931 
Q 1991 822 1603 83 
Q 1216 -656 453 -997 
z
" transform="scale(0.015625)"/>
      </defs>
      <use xlink:href="#DejaVuSerif-52"/>
      <use xlink:href="#DejaVuSerif-6f" transform="translate(75.292969 0)"/>
      <use xlink:href="#DejaVuSerif-6c" transform="translate(135.498047 0)"/>
      <use xlink:href="#DejaVuSerif-6c" transform="translate(167.480469 0)"/>
      <use xlink:href="#DejaVuSerif-69" transform="translate(199.462891 0)"/>
      <use xlink:href="#DejaVuSerif-6e" transform="translate(231.445312 0)"/>
      <use xlink:href="#DejaVuSerif-67" transform="translate(295.849609 0)"/>
      <use xlink:href="#DejaVuSerif-20" transform="translate(359.863281 0)"/>
      <use xlink:href="#DejaVuSerif-53" transform="translate(391.650391 0)"/>
      <use xlink:href="#DejaVuSerif-4d" transform="translate(460.15625 0)"/>
      <use xlink:href="#DejaVuSerif-41" transform="translate(562.548828 0)"/>
      <use xlink:href="#DejaVuSerif-50" transform="translate(634.765625 0)"/>
      <use xlink:href="#DejaVuSerif-45" transform="translate(702.050781 0)"/>
      <use xlink:href="#DejaVuSerif-20" transform="translate(775.048828 0)"/>
      <use xlink:href="#DejaVuSerif-28" transform="translate(806.835938 0)"/>
      <use xlink:href="#DejaVuSerif-25" transform="translate(845.849609 0)"/>
      <use xlink:href="#DejaVuSerif-29" transform="translate(940.869141 0)"/>
     </g>
    </g>
   </g>
   <g id="line2d_27">
    <path d="M 78.928878 84.359207 
L 86.187269 238.659387 
L 93.445659 180.622462 
L 100.70405 173.526388 
L 107.962441 189.625106 
L 115.220831 215.56434 
L 122.479222 248.478106 
L 129.737613 259.71432 
L 136.996004 237.40296 
L 144.254394 242.768482 
L 151.512785 269.921847 
L 158.771176 225.11368 
L 166.029567 140.155535 
L 173.287957 142.843732 
L 180.546348 124.14743 
L 187.804739 81.096841 
L 195.063129 155.131748 
L 202.32152 127.722513 
L 209.579911 131.214864 
L 216.838302 35.487216 
L 224.096692 186.169066 
L 231.355083 158.163805 
L 238.613474 192.900574 
L 245.871865 157.977313 
L 253.130255 168.61803 
L 260.388646 151.080293 
L 267.647037 132.49114 
L 274.905427 138.013179 
L 282.163818 140.215565 
L 289.422209 169.078054 
L 296.6806 187.976476 
L 303.93899 229.48112 
L 311.197381 199.122551 
L 318.455772 219.141794 
L 325.714163 232.547307 
L 332.972553 244.469528 
L 340.230944 261.56673 
L 347.489335 230.810692 
L 354.747725 194.797163 
L 362.006116 163.799954 
L 369.264507 204.583213 
L 376.522898 192.981814 
L 383.781288 185.20525 
L 391.039679 207.867569 
L 398.29807 229.36512 
L 405.55646 233.848935 
L 412.814851 209.540126 
L 420.073242 175.574255 
L 427.331633 239.979339 
L 434.590023 253.027005 
L 441.848414 219.527172 
L 449.106805 282.758709 
L 456.365196 206.814166 
L 463.623586 204.250795 
L 470.881977 182.42485 
L 478.140368 234.987154 
L 485.398758 207.824198 
L 492.657149 223.014772 
L 499.91554 264.361793 
L 507.173931 275.65873 
L 514.432321 251.817966 
L 521.690712 199.360806 
L 528.949103 230.685836 
L 536.207494 260.345002 
L 543.465884 238.77653 
L 550.724275 242.940793 
L 557.982666 228.491173 
L 565.241056 194.493892 
L 572.499447 142.962579 
L 579.757838 196.290481 
L 587.016229 177.570015 
L 594.274619 125.122567 
L 601.53301 161.129279 
L 608.791401 189.693442 
L 616.049792 182.171043 
L 623.308182 217.121869 
L 630.566573 222.495905 
L 637.824964 206.38393 
L 645.083354 148.461157 
L 652.341745 151.661963 
L 659.600136 187.329254 
L 666.858527 220.94322 
L 674.116917 245.310882 
L 681.375308 255.325192 
L 688.633699 252.921853 
L 695.89209 280.484106 
L 703.15048 239.477505 
L 710.408871 226.186881 
L 717.667262 218.0894 
L 724.925652 183.926926 
L 732.184043 201.990159 
L 739.442434 243.538682 
L 746.700825 249.038487 
L 753.959215 232.582423 
L 761.217606 255.005303 
L 768.475997 233.083566 
L 775.734387 241.262392 
L 782.992778 234.88917 
L 790.251169 233.039319 
L 797.50956 233.667333 
" clip-path="url(#p412613df85)" style="fill: none; stroke: #222222; stroke-width: 1.9; stroke-linecap: square"/>
   </g>
   <g id="line2d_28">
    <path d="M 78.928878 174.27997 
L 86.187269 174.866564 
L 93.445659 175.453159 
L 100.70405 176.039753 
L 107.962441 176.626348 
L 115.220831 177.212942 
L 122.479222 177.799537 
L 129.737613 178.386131 
L 136.996004 178.972726 
L 144.254394 179.55932 
L 151.512785 180.145915 
L 158.771176 180.732509 
L 166.029567 181.319104 
L 173.287957 181.905698 
L 180.546348 182.492293 
L 187.804739 183.078887 
L 195.063129 183.665482 
L 202.32152 184.252076 
L 209.579911 184.838671 
L 216.838302 185.425265 
L 224.096692 186.01186 
L 231.355083 186.598454 
L 238.613474 187.185049 
L 245.871865 187.771643 
L 253.130255 188.358238 
L 260.388646 188.944832 
L 267.647037 189.531427 
L 274.905427 190.118021 
L 282.163818 190.704616 
L 289.422209 191.29121 
L 296.6806 191.877805 
L 303.93899 192.464399 
L 311.197381 193.050994 
L 318.455772 193.637588 
L 325.714163 194.224183 
L 332.972553 194.810777 
L 340.230944 195.397372 
L 347.489335 195.983966 
L 354.747725 196.570561 
L 362.006116 197.157155 
L 369.264507 197.74375 
L 376.522898 198.330344 
L 383.781288 198.916939 
L 391.039679 199.503533 
L 398.29807 200.090128 
L 405.55646 200.676722 
L 412.814851 201.263317 
L 420.073242 201.849911 
L 427.331633 202.436506 
L 434.590023 203.0231 
L 441.848414 203.609695 
L 449.106805 204.196289 
L 456.365196 204.782884 
L 463.623586 205.369478 
L 470.881977 205.956073 
L 478.140368 206.542667 
L 485.398758 207.129262 
L 492.657149 207.715856 
L 499.91554 208.302451 
L 507.173931 208.889045 
L 514.432321 209.47564 
L 521.690712 210.062234 
L 528.949103 210.648829 
L 536.207494 211.235423 
L 543.465884 211.822018 
L 550.724275 212.408612 
L 557.982666 212.995207 
L 565.241056 213.581801 
L 572.499447 214.168396 
L 579.757838 214.75499 
L 587.016229 215.341585 
L 594.274619 215.928179 
L 601.53301 216.514774 
L 608.791401 217.101368 
L 616.049792 217.687963 
L 623.308182 218.274557 
L 630.566573 218.861152 
L 637.824964 219.447746 
L 645.083354 220.034341 
L 652.341745 220.620935 
L 659.600136 221.20753 
L 666.858527 221.794124 
L 674.116917 222.380719 
L 681.375308 222.967313 
L 688.633699 223.553908 
L 695.89209 224.140502 
L 703.15048 224.727097 
L 710.408871 225.313691 
L 717.667262 225.900286 
L 724.925652 226.48688 
L 732.184043 227.073475 
L 739.442434 227.660069 
L 746.700825 228.246664 
L 753.959215 228.833258 
L 761.217606 229.419853 
L 768.475997 230.006447 
L 775.734387 230.593042 
L 782.992778 231.179636 
L 790.251169 231.766231 
L 797.50956 232.352825 
" clip-path="url(#p412613df85)" style="fill: none; stroke-dasharray: 4.07,1.76; stroke-dashoffset: 0; stroke: #222222; stroke-opacity: 0.9; stroke-width: 1.1"/>
   </g>
   <g id="line2d_29">
    <path d="M 78.928878 192.995522 
L 86.187269 193.482182 
L 93.445659 193.968842 
L 100.70405 194.455502 
L 107.962441 194.942162 
L 115.220831 195.428822 
L 122.479222 195.915482 
L 129.737613 196.402142 
L 136.996004 196.888802 
L 144.254394 197.375462 
L 151.512785 197.862122 
L 158.771176 198.348782 
L 166.029567 198.835442 
L 173.287957 199.322103 
L 180.546348 199.808763 
L 187.804739 200.295423 
L 195.063129 200.782083 
L 202.32152 201.268743 
L 209.579911 201.755403 
L 216.838302 202.242063 
L 224.096692 202.728723 
L 231.355083 203.215383 
L 238.613474 203.702043 
L 245.871865 204.188703 
L 253.130255 204.675363 
L 260.388646 205.162023 
L 267.647037 205.648683 
L 274.905427 206.135343 
L 282.163818 206.622003 
L 289.422209 207.108663 
L 296.6806 207.595324 
L 303.93899 208.081984 
L 311.197381 208.568644 
L 318.455772 209.055304 
L 325.714163 209.541964 
L 332.972553 210.028624 
L 340.230944 210.515284 
L 347.489335 211.001944 
L 354.747725 211.488604 
L 362.006116 211.975264 
L 369.264507 212.461924 
L 376.522898 212.948584 
L 383.781288 213.435244 
L 391.039679 213.921904 
L 398.29807 214.408564 
L 405.55646 214.895224 
L 412.814851 215.381885 
L 420.073242 215.868545 
L 427.331633 216.355205 
L 434.590023 216.841865 
L 441.848414 217.328525 
L 449.106805 217.815185 
L 456.365196 218.301845 
L 463.623586 218.788505 
L 470.881977 219.275165 
L 478.140368 219.761825 
L 485.398758 220.248485 
L 492.657149 220.735145 
L 499.91554 221.221805 
L 507.173931 221.708465 
L 514.432321 222.195125 
L 521.690712 222.681785 
L 528.949103 223.168445 
L 536.207494 223.655106 
L 543.465884 224.141766 
L 550.724275 224.628426 
L 557.982666 225.115086 
L 565.241056 225.601746 
L 572.499447 226.088406 
L 579.757838 226.575066 
L 587.016229 227.061726 
L 594.274619 227.548386 
L 601.53301 228.035046 
L 608.791401 228.521706 
L 616.049792 229.008366 
L 623.308182 229.495026 
L 630.566573 229.981686 
L 637.824964 230.468346 
L 645.083354 230.955006 
L 652.341745 231.441667 
L 659.600136 231.928327 
L 666.858527 232.414987 
L 674.116917 232.901647 
L 681.375308 233.388307 
L 688.633699 233.874967 
L 695.89209 234.361627 
L 703.15048 234.848287 
L 710.408871 235.334947 
L 717.667262 235.821607 
L 724.925652 236.308267 
L 732.184043 236.794927 
L 739.442434 237.281587 
L 746.700825 237.768247 
L 753.959215 238.254907 
L 761.217606 238.741567 
L 768.475997 239.228227 
L 775.734387 239.714888 
L 782.992778 240.201548 
L 790.251169 240.688208 
L 797.50956 241.174868 
" clip-path="url(#p412613df85)" style="fill: none; stroke-dasharray: 4.07,1.76; stroke-dashoffset: 0; stroke: #666666; stroke-opacity: 0.9; stroke-width: 1.1"/>
   </g>
   <g id="line2d_30">
    <path d="M 78.928878 211.691404 
L 86.187269 212.106605 
L 93.445659 212.521807 
L 100.70405 212.937008 
L 107.962441 213.352209 
L 115.220831 213.76741 
L 122.479222 214.182611 
L 129.737613 214.597813 
L 136.996004 215.013014 
L 144.254394 215.428215 
L 151.512785 215.843416 
L 158.771176 216.258617 
L 166.029567 216.673819 
L 173.287957 217.08902 
L 180.546348 217.504221 
L 187.804739 217.919422 
L 195.063129 218.334623 
L 202.32152 218.749825 
L 209.579911 219.165026 
L 216.838302 219.580227 
L 224.096692 219.995428 
L 231.355083 220.410629 
L 238.613474 220.825831 
L 245.871865 221.241032 
L 253.130255 221.656233 
L 260.388646 222.071434 
L 267.647037 222.486635 
L 274.905427 222.901836 
L 282.163818 223.317038 
L 289.422209 223.732239 
L 296.6806 224.14744 
L 303.93899 224.562641 
L 311.197381 224.977842 
L 318.455772 225.393044 
L 325.714163 225.808245 
L 332.972553 226.223446 
L 340.230944 226.638647 
L 347.489335 227.053848 
L 354.747725 227.46905 
L 362.006116 227.884251 
L 369.264507 228.299452 
L 376.522898 228.714653 
L 383.781288 229.129854 
L 391.039679 229.545056 
L 398.29807 229.960257 
L 405.55646 230.375458 
L 412.814851 230.790659 
L 420.073242 231.20586 
L 427.331633 231.621062 
L 434.590023 232.036263 
L 441.848414 232.451464 
L 449.106805 232.866665 
L 456.365196 233.281866 
L 463.623586 233.697067 
L 470.881977 234.112269 
L 478.140368 234.52747 
L 485.398758 234.942671 
L 492.657149 235.357872 
L 499.91554 235.773073 
L 507.173931 236.188275 
L 514.432321 236.603476 
L 521.690712 237.018677 
L 528.949103 237.433878 
L 536.207494 237.849079 
L 543.465884 238.264281 
L 550.724275 238.679482 
L 557.982666 239.094683 
L 565.241056 239.509884 
L 572.499447 239.925085 
L 579.757838 240.340287 
L 587.016229 240.755488 
L 594.274619 241.170689 
L 601.53301 241.58589 
L 608.791401 242.001091 
L 616.049792 242.416293 
L 623.308182 242.831494 
L 630.566573 243.246695 
L 637.824964 243.661896 
L 645.083354 244.077097 
L 652.341745 244.492298 
L 659.600136 244.9075 
L 666.858527 245.322701 
L 674.116917 245.737902 
L 681.375308 246.153103 
L 688.633699 246.568304 
L 695.89209 246.983506 
L 703.15048 247.398707 
L 710.408871 247.813908 
L 717.667262 248.229109 
L 724.925652 248.64431 
L 732.184043 249.059512 
L 739.442434 249.474713 
L 746.700825 249.889914 
L 753.959215 250.305115 
L 761.217606 250.720316 
L 768.475997 251.135518 
L 775.734387 251.550719 
L 782.992778 251.96592 
L 790.251169 252.381121 
L 797.50956 252.796322 
" clip-path="url(#p412613df85)" style="fill: none; stroke-dasharray: 4.07,1.76; stroke-dashoffset: 0; stroke: #999999; stroke-opacity: 0.9; stroke-width: 1.1"/>
   </g>
   <g id="patch_3">
    <path d="M 42.999844 312.038125 
L 42.999844 22.318125 
" style="fill: none; stroke: #000000; stroke-width: 0.8; stroke-linejoin: miter; stroke-linecap: square"/>
   </g>
   <g id="patch_4">
    <path d="M 42.999844 312.038125 
L 833.438594 312.038125 
" style="fill: none; stroke: #000000; stroke-width: 0.8; stroke-linejoin: miter; stroke-linecap: square"/>
   </g>
   <g id="line2d_31">
    <path d="M 78.928878 103.133315 
L 86.187269 250.843792 
L 93.445659 197.655274 
L 100.70405 191.355267 
L 107.962441 203.80966 
L 115.220831 228.778048 
L 122.479222 253.851523 
L 129.737613 263.880602 
L 136.996004 249.351517 
L 144.254394 253.603684 
L 151.512785 275.714143 
L 158.771176 236.462981 
L 166.029567 172.307318 
L 173.287957 168.552677 
L 180.546348 154.506526 
L 187.804739 114.803097 
L 195.063129 178.070257 
L 202.32152 157.327236 
L 209.579911 156.996127 
L 216.838302 71.842688 
L 224.096692 199.931345 
L 231.355083 183.729519 
L 238.613474 205.132955 
L 245.871865 181.248104 
L 253.130255 197.725539 
L 260.388646 177.889849 
L 267.647037 155.864499 
L 274.905427 158.680537 
L 282.163818 161.493816 
L 289.422209 187.258429 
L 296.6806 207.014947 
L 303.93899 233.206126 
L 311.197381 207.825924 
L 318.455772 221.979263 
L 325.714163 243.122854 
L 332.972553 253.066044 
L 340.230944 260.454644 
L 347.489335 237.337964 
L 354.747725 213.760548 
L 362.006116 182.872723 
L 369.264507 214.989441 
L 376.522898 200.743844 
L 383.781288 199.439194 
L 391.039679 222.232152 
L 398.29807 239.707522 
L 405.55646 245.420309 
L 412.814851 226.704795 
L 420.073242 199.629546 
L 427.331633 247.718409 
L 434.590023 263.131452 
L 441.848414 231.937363 
L 449.106805 285.619125 
L 456.365196 218.240886 
L 463.623586 213.806673 
L 470.881977 194.308203 
L 478.140368 241.702025 
L 485.398758 218.14851 
L 492.657149 235.491935 
L 499.91554 271.625838 
L 507.173931 282.736295 
L 514.432321 261.905222 
L 521.690712 210.107621 
L 528.949103 241.380169 
L 536.207494 259.183721 
L 543.465884 249.15879 
L 550.724275 256.942246 
L 557.982666 235.750231 
L 565.241056 216.312979 
L 572.499447 173.498158 
L 579.757838 206.753701 
L 587.016229 191.18107 
L 594.274619 146.99789 
L 601.53301 180.665886 
L 608.791401 199.255208 
L 616.049792 200.003836 
L 623.308182 228.328245 
L 630.566573 235.975219 
L 637.824964 224.488696 
L 645.083354 178.377175 
L 652.341745 176.437392 
L 659.600136 206.108519 
L 666.858527 220.670239 
L 674.116917 253.170758 
L 681.375308 263.340343 
L 688.633699 258.563508 
L 695.89209 282.391222 
L 703.15048 249.788102 
L 710.408871 233.24366 
L 717.667262 226.503689 
L 724.925652 196.865093 
L 732.184043 214.710611 
L 739.442434 255.06445 
L 746.700825 256.242774 
L 753.959215 240.913037 
L 761.217606 260.936227 
L 768.475997 236.896176 
L 775.734387 248.456998 
L 782.992778 243.805206 
L 790.251169 238.415189 
L 797.50956 243.955334 
" clip-path="url(#p412613df85)" style="fill: none; stroke-dasharray: 11.4,4.75; stroke-dashoffset: 0; stroke: #666666; stroke-width: 1.9"/>
   </g>
   <g id="text_20">
    <!-- Cross-Sectional Average -->
    <g transform="translate(363.859531 16.318125) scale(0.12 -0.12)">
     <defs>
      <path id="DejaVuSerif-43" d="M 4513 1234 
Q 4306 581 3820 245 
Q 3334 -91 2591 -91 
Q 2134 -91 1743 65 
Q 1353 222 1050 525 
Q 700 875 529 1320 
Q 359 1766 359 2328 
Q 359 3416 987 4083 
Q 1616 4750 2644 4750 
Q 3025 4750 3456 4650 
Q 3888 4550 4384 4347 
L 4384 3272 
L 4031 3272 
Q 3916 3859 3567 4137 
Q 3219 4416 2591 4416 
Q 1844 4416 1459 3886 
Q 1075 3356 1075 2328 
Q 1075 1303 1459 773 
Q 1844 244 2591 244 
Q 3113 244 3450 492 
Q 3788 741 3938 1234 
L 4513 1234 
z
" transform="scale(0.015625)"/>
      <path id="DejaVuSerif-72" d="M 3059 3328 
L 3059 2497 
L 2728 2497 
Q 2713 2744 2591 2866 
Q 2469 2988 2234 2988 
Q 1809 2988 1582 2694 
Q 1356 2400 1356 1850 
L 1356 331 
L 2022 331 
L 2022 0 
L 263 0 
L 263 331 
L 781 331 
L 781 2994 
L 231 2994 
L 231 3322 
L 1356 3322 
L 1356 2731 
Q 1525 3078 1790 3245 
Q 2056 3413 2438 3413 
Q 2578 3413 2733 3391 
Q 2888 3369 3059 3328 
z
" transform="scale(0.015625)"/>
      <path id="DejaVuSerif-73" d="M 359 184 
L 359 959 
L 691 959 
Q 703 588 923 403 
Q 1144 219 1575 219 
Q 1963 219 2166 364 
Q 2369 509 2369 788 
Q 2369 1006 2220 1140 
Q 2072 1275 1594 1428 
L 1178 1569 
Q 750 1706 558 1912 
Q 366 2119 366 2438 
Q 366 2894 700 3153 
Q 1034 3413 1625 3413 
Q 1888 3413 2178 3344 
Q 2469 3275 2778 3144 
L 2778 2419 
L 2447 2419 
Q 2434 2741 2221 2922 
Q 2009 3103 1644 3103 
Q 1281 3103 1095 2975 
Q 909 2847 909 2591 
Q 909 2381 1050 2254 
Q 1191 2128 1613 1997 
L 2069 1856 
Q 2541 1709 2748 1489 
Q 2956 1269 2956 922 
Q 2956 450 2595 179 
Q 2234 -91 1600 -91 
Q 1278 -91 972 -22 
Q 666 47 359 184 
z
" transform="scale(0.015625)"/>
      <path id="DejaVuSerif-63" d="M 3291 997 
Q 3169 466 2822 187 
Q 2475 -91 1925 -91 
Q 1200 -91 759 389 
Q 319 869 319 1663 
Q 319 2459 759 2936 
Q 1200 3413 1925 3413 
Q 2241 3413 2553 3339 
Q 2866 3266 3181 3116 
L 3181 2266 
L 2847 2266 
Q 2781 2703 2561 2903 
Q 2341 3103 1931 3103 
Q 1466 3103 1228 2742 
Q 991 2381 991 1663 
Q 991 944 1227 581 
Q 1463 219 1931 219 
Q 2303 219 2525 412 
Q 2747 606 2828 997 
L 3291 997 
z
" transform="scale(0.015625)"/>
      <path id="DejaVuSerif-74" d="M 691 2988 
L 184 2988 
L 184 3322 
L 691 3322 
L 691 4353 
L 1269 4353 
L 1269 3322 
L 2350 3322 
L 2350 2988 
L 1269 2988 
L 1269 878 
Q 1269 456 1350 337 
Q 1431 219 1650 219 
Q 1875 219 1978 351 
Q 2081 484 2088 781 
L 2522 781 
Q 2497 328 2275 118 
Q 2053 -91 1600 -91 
Q 1103 -91 897 129 
Q 691 350 691 878 
L 691 2988 
z
" transform="scale(0.015625)"/>
      <path id="DejaVuSerif-61" d="M 2547 1044 
L 2547 1747 
L 1806 1747 
Q 1378 1747 1168 1562 
Q 959 1378 959 997 
Q 959 650 1171 447 
Q 1384 244 1747 244 
Q 2106 244 2326 466 
Q 2547 688 2547 1044 
z
M 3122 2075 
L 3122 331 
L 3634 331 
L 3634 0 
L 2547 0 
L 2547 359 
Q 2356 128 2106 18 
Q 1856 -91 1522 -91 
Q 969 -91 644 203 
Q 319 497 319 997 
Q 319 1513 691 1797 
Q 1063 2081 1741 2081 
L 2547 2081 
L 2547 2309 
Q 2547 2688 2317 2895 
Q 2088 3103 1672 3103 
Q 1328 3103 1125 2947 
Q 922 2791 872 2484 
L 575 2484 
L 575 3156 
Q 875 3284 1158 3348 
Q 1441 3413 1709 3413 
Q 2400 3413 2761 3070 
Q 3122 2728 3122 2075 
z
" transform="scale(0.015625)"/>
      <path id="DejaVuSerif-76" d="M 1581 0 
L 359 2988 
L -19 2988 
L -19 3322 
L 1509 3322 
L 1509 2988 
L 978 2988 
L 1913 703 
L 2847 2988 
L 2350 2988 
L 2350 3322 
L 3597 3322 
L 3597 2988 
L 3225 2988 
L 2003 0 
L 1581 0 
z
" transform="scale(0.015625)"/>
     </defs>
     <use xlink:href="#DejaVuSerif-43"/>
     <use xlink:href="#DejaVuSerif-72" transform="translate(76.513672 0)"/>
     <use xlink:href="#DejaVuSerif-6f" transform="translate(124.316406 0)"/>
     <use xlink:href="#DejaVuSerif-73" transform="translate(184.521484 0)"/>
     <use xlink:href="#DejaVuSerif-73" transform="translate(235.839844 0)"/>
     <use xlink:href="#DejaVuSerif-2d" transform="translate(287.158203 0)"/>
     <use xlink:href="#DejaVuSerif-53" transform="translate(320.947266 0)"/>
     <use xlink:href="#DejaVuSerif-65" transform="translate(389.453125 0)"/>
     <use xlink:href="#DejaVuSerif-63" transform="translate(448.632812 0)"/>
     <use xlink:href="#DejaVuSerif-74" transform="translate(504.638672 0)"/>
     <use xlink:href="#DejaVuSerif-69" transform="translate(544.824219 0)"/>
     <use xlink:href="#DejaVuSerif-6f" transform="translate(576.806641 0)"/>
     <use xlink:href="#DejaVuSerif-6e" transform="translate(637.011719 0)"/>
     <use xlink:href="#DejaVuSerif-61" transform="translate(701.416016 0)"/>
     <use xlink:href="#DejaVuSerif-6c" transform="translate(761.035156 0)"/>
     <use xlink:href="#DejaVuSerif-20" transform="translate(793.017578 0)"/>
     <use xlink:href="#DejaVuSerif-41" transform="translate(824.804688 0)"/>
     <use xlink:href="#DejaVuSerif-76" transform="translate(893.021484 0)"/>
     <use xlink:href="#DejaVuSerif-65" transform="translate(949.515625 0)"/>
     <use xlink:href="#DejaVuSerif-72" transform="translate(1008.695312 0)"/>
     <use xlink:href="#DejaVuSerif-61" transform="translate(1056.498047 0)"/>
     <use xlink:href="#DejaVuSerif-67" transform="translate(1116.117188 0)"/>
     <use xlink:href="#DejaVuSerif-65" transform="translate(1180.130859 0)"/>
    </g>
   </g>
   <g id="line2d_32">
    <path d="M 78.928878 192.337249 
L 86.187269 267.151913 
L 93.445659 201.777135 
L 100.70405 199.110896 
L 107.962441 211.353151 
L 115.220831 235.573882 
L 122.479222 268.255953 
L 129.737613 271.484688 
L 136.996004 275.80625 
L 144.254394 270.699513 
L 151.512785 298.869034 
L 158.771176 252.593725 
L 166.029567 186.51186 
L 173.287957 184.643751 
L 180.546348 162.746828 
L 187.804739 130.218489 
L 195.063129 190.129149 
L 202.32152 179.0325 
L 209.579911 172.400883 
L 216.838302 86.935659 
L 224.096692 211.533155 
L 231.355083 201.716165 
L 238.613474 226.659683 
L 245.871865 204.512285 
L 253.130255 221.047248 
L 260.388646 193.008834 
L 267.647037 175.80576 
L 274.905427 184.619035 
L 282.163818 173.749448 
L 289.422209 205.577521 
L 296.6806 216.362878 
L 303.93899 251.123165 
L 311.197381 222.047216 
L 318.455772 242.098431 
L 325.714163 261.575287 
L 332.972553 263.178584 
L 340.230944 279.456632 
L 347.489335 262.727144 
L 354.747725 232.033735 
L 362.006116 201.22199 
L 369.264507 230.925851 
L 376.522898 216.013197 
L 383.781288 222.321086 
L 391.039679 240.684134 
L 398.29807 252.970474 
L 405.55646 256.959484 
L 412.814851 241.653674 
L 420.073242 213.617683 
L 427.331633 257.992182 
L 434.590023 271.820362 
L 441.848414 247.179458 
L 449.106805 296.125811 
L 456.365196 232.304703 
L 463.623586 230.234135 
L 470.881977 208.134881 
L 478.140368 251.622588 
L 485.398758 232.718011 
L 492.657149 255.499894 
L 499.91554 280.318412 
L 507.173931 288.431132 
L 514.432321 268.012031 
L 521.690712 226.489274 
L 528.949103 249.007673 
L 536.207494 281.218369 
L 543.465884 258.343934 
L 550.724275 270.754923 
L 557.982666 244.396432 
L 565.241056 223.462647 
L 572.499447 186.69669 
L 579.757838 226.227079 
L 587.016229 214.273328 
L 594.274619 163.945482 
L 601.53301 189.196928 
L 608.791401 208.340406 
L 616.049792 209.417967 
L 623.308182 243.809708 
L 630.566573 236.70071 
L 637.824964 253.156695 
L 645.083354 188.475811 
L 652.341745 191.640214 
L 659.600136 216.425998 
L 666.858527 243.194683 
L 674.116917 251.624727 
L 681.375308 263.84831 
L 688.633699 274.976474 
L 695.89209 292.617755 
L 703.15048 258.569946 
L 710.408871 244.58602 
L 717.667262 249.195006 
L 724.925652 216.613625 
L 732.184043 230.606762 
L 739.442434 267.088134 
L 746.700825 275.446763 
L 753.959215 254.811392 
L 761.217606 265.997417 
L 768.475997 249.165232 
L 775.734387 256.795472 
L 782.992778 263.230967 
L 790.251169 263.258914 
L 797.50956 257.552575 
" clip-path="url(#p412613df85)" style="fill: none; stroke-dasharray: 5.7,3.8; stroke-dashoffset: 0; stroke: #999999; stroke-width: 1.9"/>
   </g>
   <g id="legend_1">
    <g id="line2d_33">
     <path d="M 443.232344 35.416562 
L 453.232344 35.416562 
L 463.232344 35.416562 
" style="fill: none; stroke: #222222; stroke-width: 1.9; stroke-linecap: square"/>
    </g>
    <g id="text_21">
     <!-- HAR-RV -->
     <g transform="translate(471.232344 38.916562) scale(0.1 -0.1)">
      <defs>
       <path id="DejaVuSerif-48" d="M 353 0 
L 353 331 
L 947 331 
L 947 4331 
L 353 4331 
L 353 4666 
L 2175 4666 
L 2175 4331 
L 1581 4331 
L 1581 2719 
L 4000 2719 
L 4000 4331 
L 3406 4331 
L 3406 4666 
L 5228 4666 
L 5228 4331 
L 4634 4331 
L 4634 331 
L 5228 331 
L 5228 0 
L 3406 0 
L 3406 331 
L 4000 331 
L 4000 2338 
L 1581 2338 
L 1581 331 
L 2175 331 
L 2175 0 
L 353 0 
z
" transform="scale(0.015625)"/>
       <path id="DejaVuSerif-56" d="M 1119 4331 
L 2497 750 
L 3872 4331 
L 3347 4331 
L 3347 4666 
L 4716 4666 
L 4716 4331 
L 4263 4331 
L 2597 0 
L 2059 0 
L 403 4331 
L -63 4331 
L -63 4666 
L 1638 4666 
L 1638 4331 
L 1119 4331 
z
" transform="scale(0.015625)"/>
      </defs>
      <use xlink:href="#DejaVuSerif-48"/>
      <use xlink:href="#DejaVuSerif-41" transform="translate(87.207031 0)"/>
      <use xlink:href="#DejaVuSerif-52" transform="translate(159.423828 0)"/>
      <use xlink:href="#DejaVuSerif-2d" transform="translate(234.716797 0)"/>
      <use xlink:href="#DejaVuSerif-52" transform="translate(268.505859 0)"/>
      <use xlink:href="#DejaVuSerif-56" transform="translate(340.173828 0)"/>
     </g>
    </g>
    <g id="line2d_34">
     <path d="M 532.472969 35.416562 
L 542.472969 35.416562 
L 552.472969 35.416562 
" style="fill: none; stroke-dasharray: 11.4,4.75; stroke-dashoffset: 0; stroke: #666666; stroke-width: 1.9"/>
    </g>
    <g id="text_22">
     <!-- Prime Modulo (PM) -->
     <g transform="translate(560.472969 38.916562) scale(0.1 -0.1)">
      <defs>
       <path id="DejaVuSerif-64" d="M 3359 331 
L 3909 331 
L 3909 0 
L 2784 0 
L 2784 519 
Q 2616 206 2355 57 
Q 2094 -91 1709 -91 
Q 1097 -91 708 395 
Q 319 881 319 1663 
Q 319 2444 706 2928 
Q 1094 3413 1709 3413 
Q 2094 3413 2355 3264 
Q 2616 3116 2784 2803 
L 2784 4531 
L 2241 4531 
L 2241 4863 
L 3359 4863 
L 3359 331 
z
M 2784 1497 
L 2784 1825 
Q 2784 2422 2554 2737 
Q 2325 3053 1888 3053 
Q 1444 3053 1217 2703 
Q 991 2353 991 1663 
Q 991 975 1217 622 
Q 1444 269 1888 269 
Q 2325 269 2554 583 
Q 2784 897 2784 1497 
z
" transform="scale(0.015625)"/>
       <path id="DejaVuSerif-75" d="M 2266 3322 
L 3341 3322 
L 3341 331 
L 3884 331 
L 3884 0 
L 2766 0 
L 2766 588 
Q 2606 256 2353 82 
Q 2100 -91 1766 -91 
Q 1213 -91 952 223 
Q 691 538 691 1209 
L 691 2988 
L 172 2988 
L 172 3322 
L 1269 3322 
L 1269 1388 
Q 1269 781 1417 556 
Q 1566 331 1947 331 
Q 2347 331 2556 625 
Q 2766 919 2766 1478 
L 2766 2988 
L 2266 2988 
L 2266 3322 
z
" transform="scale(0.015625)"/>
      </defs>
      <use xlink:href="#DejaVuSerif-50"/>
      <use xlink:href="#DejaVuSerif-72" transform="translate(67.285156 0)"/>
      <use xlink:href="#DejaVuSerif-69" transform="translate(115.087891 0)"/>
      <use xlink:href="#DejaVuSerif-6d" transform="translate(147.070312 0)"/>
      <use xlink:href="#DejaVuSerif-65" transform="translate(241.894531 0)"/>
      <use xlink:href="#DejaVuSerif-20" transform="translate(301.074219 0)"/>
      <use xlink:href="#DejaVuSerif-4d" transform="translate(332.861328 0)"/>
      <use xlink:href="#DejaVuSerif-6f" transform="translate(435.253906 0)"/>
      <use xlink:href="#DejaVuSerif-64" transform="translate(495.458984 0)"/>
      <use xlink:href="#DejaVuSerif-75" transform="translate(559.472656 0)"/>
      <use xlink:href="#DejaVuSerif-6c" transform="translate(623.876953 0)"/>
      <use xlink:href="#DejaVuSerif-6f" transform="translate(655.859375 0)"/>
      <use xlink:href="#DejaVuSerif-20" transform="translate(716.064453 0)"/>
      <use xlink:href="#DejaVuSerif-28" transform="translate(747.851562 0)"/>
      <use xlink:href="#DejaVuSerif-50" transform="translate(786.865234 0)"/>
      <use xlink:href="#DejaVuSerif-4d" transform="translate(854.150391 0)"/>
      <use xlink:href="#DejaVuSerif-29" transform="translate(956.542969 0)"/>
     </g>
    </g>
    <g id="line2d_35">
     <path d="M 680.027656 35.416562 
L 690.027656 35.416562 
L 700.027656 35.416562 
" style="fill: none; stroke-dasharray: 5.7,3.8; stroke-dashoffset: 0; stroke: #999999; stroke-width: 1.9"/>
    </g>
    <g id="text_23">
     <!-- Contiguous Prime (CP) -->
     <g transform="translate(708.027656 38.916562) scale(0.1 -0.1)">
      <use xlink:href="#DejaVuSerif-43"/>
      <use xlink:href="#DejaVuSerif-6f" transform="translate(76.513672 0)"/>
      <use xlink:href="#DejaVuSerif-6e" transform="translate(136.71875 0)"/>
      <use xlink:href="#DejaVuSerif-74" transform="translate(201.123047 0)"/>
      <use xlink:href="#DejaVuSerif-69" transform="translate(241.308594 0)"/>
      <use xlink:href="#DejaVuSerif-67" transform="translate(273.291016 0)"/>
      <use xlink:href="#DejaVuSerif-75" transform="translate(337.304688 0)"/>
      <use xlink:href="#DejaVuSerif-6f" transform="translate(401.708984 0)"/>
      <use xlink:href="#DejaVuSerif-75" transform="translate(461.914062 0)"/>
      <use xlink:href="#DejaVuSerif-73" transform="translate(526.318359 0)"/>
      <use xlink:href="#DejaVuSerif-20" transform="translate(577.636719 0)"/>
      <use xlink:href="#DejaVuSerif-50" transform="translate(609.423828 0)"/>
      <use xlink:href="#DejaVuSerif-72" transform="translate(676.708984 0)"/>
      <use xlink:href="#DejaVuSerif-69" transform="translate(724.511719 0)"/>
      <use xlink:href="#DejaVuSerif-6d" transform="translate(756.494141 0)"/>
      <use xlink:href="#DejaVuSerif-65" transform="translate(851.318359 0)"/>
      <use xlink:href="#DejaVuSerif-20" transform="translate(910.498047 0)"/>
      <use xlink:href="#DejaVuSerif-28" transform="translate(942.285156 0)"/>
      <use xlink:href="#DejaVuSerif-43" transform="translate(981.298828 0)"/>
      <use xlink:href="#DejaVuSerif-50" transform="translate(1057.8125 0)"/>
      <use xlink:href="#DejaVuSerif-29" transform="translate(1125.097656 0)"/>
     </g>
    </g>
   </g>
  </g>
 </g>
 <defs>
  <clipPath id="p412613df85">
   <rect x="42.999844" y="22.318125" width="790.43875" height="289.72"/>
  </clipPath>
 </defs>
</svg>
