<?xml version="1.0" encoding="utf-8" standalone="no"?>
<!DOCTYPE svg PUBLIC "-//W3C//DTD SVG 1.1//EN"
  "http://www.w3.org/Graphics/SVG/1.1/DTD/svg11.dtd">
<svg xmlns:xlink="http://www.w3.org/1999/xlink" width="818.194735pt" height="293.434375pt" viewBox="0 0 818.194735 293.434375" xmlns="http://www.w3.org/2000/svg" version="1.1">
 <metadata>
  <rdf:RDF xmlns:dc="http://purl.org/dc/elements/1.1/" xmlns:cc="http://creativecommons.org/ns#" xmlns:rdf="http://www.w3.org/1999/02/22-rdf-syntax-ns#">
   <cc:Work>
    <dc:type rdf:resource="http://purl.org/dc/dcmitype/StillImage"/>
    <dc:date>2026-01-10T20:20:36.412177</dc:date>
    <dc:format>image/svg+xml</dc:format>
    <dc:creator>
     <cc:Agent>
      <dc:title>Matplotlib v3.10.1, https://matplotlib.org/</dc:title>
     </cc:Agent>
    </dc:creator>
   </cc:Work>
  </rdf:RDF>
 </metadata>
 <defs>
  <style type="text/css">*{stroke-linejoin: round; stroke-linecap: butt}</style>
 </defs>
 <g id="figure_1">
  <g id="patch_1">
   <path d="M -0 293.434375 
L 818.194735 293.434375 
L 818.194735 0 
L -0 0 
z
" style="fill: #ffffff"/>
  </g>
  <g id="axes_1">
   <g id="patch_2">
    <path d="M 46.965625 255.878125 
L 805.67971 255.878125 
L 805.67971 22.318125 
L 46.965625 22.318125 
z
" style="fill: #ffffff"/>
   </g>
   <g id="matplotlib.axis_1">
    <g id="xtick_1">
     <g id="line2d_1">
      <defs>
       <path id="m9ecceffcce" d="M 0 0 
L 0 3.5 
" style="stroke: #000000; stroke-width: 0.8"/>
      </defs>
      <g>
       <use xlink:href="#m9ecceffcce" x="62.542006" y="255.878125" style="stroke: #000000; stroke-width: 0.8"/>
      </g>
     </g>
     <g id="text_1">
      <!-- 2023-08 -->
      <g transform="translate(41.6506 270.476562) scale(0.1 -0.1)">
       <defs>
        <path id="DejaVuSans-32" d="M 1228 531 
L 3431 531 
L 3431 0 
L 469 0 
L 469 531 
Q 828 903 1448 1529 
Q 2069 2156 2228 2338 
Q 2531 2678 2651 2914 
Q 2772 3150 2772 3378 
Q 2772 3750 2511 3984 
Q 2250 4219 1831 4219 
Q 1534 4219 1204 4116 
Q 875 4013 500 3803 
L 500 4441 
Q 881 4594 1212 4672 
Q 1544 4750 1819 4750 
Q 2544 4750 2975 4387 
Q 3406 4025 3406 3419 
Q 3406 3131 3298 2873 
Q 3191 2616 2906 2266 
Q 2828 2175 2409 1742 
Q 1991 1309 1228 531 
z
" transform="scale(0.015625)"/>
        <path id="DejaVuSans-30" d="M 2034 4250 
Q 1547 4250 1301 3770 
Q 1056 3291 1056 2328 
Q 1056 1369 1301 889 
Q 1547 409 2034 409 
Q 2525 409 2770 889 
Q 3016 1369 3016 2328 
Q 3016 3291 2770 3770 
Q 2525 4250 2034 4250 
z
M 2034 4750 
Q 2819 4750 3233 4129 
Q 3647 3509 3647 2328 
Q 3647 1150 3233 529 
Q 2819 -91 2034 -91 
Q 1250 -91 836 529 
Q 422 1150 422 2328 
Q 422 3509 836 4129 
Q 1250 4750 2034 4750 
z
" transform="scale(0.015625)"/>
        <path id="DejaVuSans-33" d="M 2597 2516 
Q 3050 2419 3304 2112 
Q 3559 1806 3559 1356 
Q 3559 666 3084 287 
Q 2609 -91 1734 -91 
Q 1441 -91 1130 -33 
Q 819 25 488 141 
L 488 750 
Q 750 597 1062 519 
Q 1375 441 1716 441 
Q 2309 441 2620 675 
Q 2931 909 2931 1356 
Q 2931 1769 2642 2001 
Q 2353 2234 1838 2234 
L 1294 2234 
L 1294 2753 
L 1863 2753 
Q 2328 2753 2575 2939 
Q 2822 3125 2822 3475 
Q 2822 3834 2567 4026 
Q 2313 4219 1838 4219 
Q 1578 4219 1281 4162 
Q 984 4106 628 3988 
L 628 4550 
Q 988 4650 1302 4700 
Q 1616 4750 1894 4750 
Q 2613 4750 3031 4423 
Q 3450 4097 3450 3541 
Q 3450 3153 3228 2886 
Q 3006 2619 2597 2516 
z
" transform="scale(0.015625)"/>
        <path id="DejaVuSans-2d" d="M 313 2009 
L 1997 2009 
L 1997 1497 
L 313 1497 
L 313 2009 
z
" transform="scale(0.015625)"/>
        <path id="DejaVuSans-38" d="M 2034 2216 
Q 1584 2216 1326 1975 
Q 1069 1734 1069 1313 
Q 1069 891 1326 650 
Q 1584 409 2034 409 
Q 2484 409 2743 651 
Q 3003 894 3003 1313 
Q 3003 1734 2745 1975 
Q 2488 2216 2034 2216 
z
M 1403 2484 
Q 997 2584 770 2862 
Q 544 3141 544 3541 
Q 544 4100 942 4425 
Q 1341 4750 2034 4750 
Q 2731 4750 3128 4425 
Q 3525 4100 3525 3541 
Q 3525 3141 3298 2862 
Q 3072 2584 2669 2484 
Q 3125 2378 3379 2068 
Q 3634 1759 3634 1313 
Q 3634 634 3220 271 
Q 2806 -91 2034 -91 
Q 1263 -91 848 271 
Q 434 634 434 1313 
Q 434 1759 690 2068 
Q 947 2378 1403 2484 
z
M 1172 3481 
Q 1172 3119 1398 2916 
Q 1625 2713 2034 2713 
Q 2441 2713 2670 2916 
Q 2900 3119 2900 3481 
Q 2900 3844 2670 4047 
Q 2441 4250 2034 4250 
Q 1625 4250 1398 4047 
Q 1172 3844 1172 3481 
z
" transform="scale(0.015625)"/>
       </defs>
       <use xlink:href="#DejaVuSans-32"/>
       <use xlink:href="#DejaVuSans-30" transform="translate(63.623047 0)"/>
       <use xlink:href="#DejaVuSans-32" transform="translate(127.246094 0)"/>
       <use xlink:href="#DejaVuSans-33" transform="translate(190.869141 0)"/>
       <use xlink:href="#DejaVuSans-2d" transform="translate(254.492188 0)"/>
       <use xlink:href="#DejaVuSans-30" transform="translate(290.576172 0)"/>
       <use xlink:href="#DejaVuSans-38" transform="translate(354.199219 0)"/>
      </g>
     </g>
    </g>
    <g id="xtick_2">
     <g id="line2d_2">
      <g>
       <use xlink:href="#m9ecceffcce" x="123.255058" y="255.878125" style="stroke: #000000; stroke-width: 0.8"/>
      </g>
     </g>
     <g id="text_2">
      <!-- 2023-10 -->
      <g transform="translate(102.363652 270.476562) scale(0.1 -0.1)">
       <defs>
        <path id="DejaVuSans-31" d="M 794 531 
L 1825 531 
L 1825 4091 
L 703 3866 
L 703 4441 
L 1819 4666 
L 2450 4666 
L 2450 531 
L 3481 531 
L 3481 0 
L 794 0 
L 794 531 
z
" transform="scale(0.015625)"/>
       </defs>
       <use xlink:href="#DejaVuSans-32"/>
       <use xlink:href="#DejaVuSans-30" transform="translate(63.623047 0)"/>
       <use xlink:href="#DejaVuSans-32" transform="translate(127.246094 0)"/>
       <use xlink:href="#DejaVuSans-33" transform="translate(190.869141 0)"/>
       <use xlink:href="#DejaVuSans-2d" transform="translate(254.492188 0)"/>
       <use xlink:href="#DejaVuSans-31" transform="translate(290.576172 0)"/>
       <use xlink:href="#DejaVuSans-30" transform="translate(354.199219 0)"/>
      </g>
     </g>
    </g>
    <g id="xtick_3">
     <g id="line2d_3">
      <g>
       <use xlink:href="#m9ecceffcce" x="183.968109" y="255.878125" style="stroke: #000000; stroke-width: 0.8"/>
      </g>
     </g>
     <g id="text_3">
      <!-- 2023-12 -->
      <g transform="translate(163.076703 270.476562) scale(0.1 -0.1)">
       <use xlink:href="#DejaVuSans-32"/>
       <use xlink:href="#DejaVuSans-30" transform="translate(63.623047 0)"/>
       <use xlink:href="#DejaVuSans-32" transform="translate(127.246094 0)"/>
       <use xlink:href="#DejaVuSans-33" transform="translate(190.869141 0)"/>
       <use xlink:href="#DejaVuSans-2d" transform="translate(254.492188 0)"/>
       <use xlink:href="#DejaVuSans-31" transform="translate(290.576172 0)"/>
       <use xlink:href="#DejaVuSans-32" transform="translate(354.199219 0)"/>
      </g>
     </g>
    </g>
    <g id="xtick_4">
     <g id="line2d_4">
      <g>
       <use xlink:href="#m9ecceffcce" x="245.676457" y="255.878125" style="stroke: #000000; stroke-width: 0.8"/>
      </g>
     </g>
     <g id="text_4">
      <!-- 2024-02 -->
      <g transform="translate(224.785051 270.476562) scale(0.1 -0.1)">
       <defs>
        <path id="DejaVuSans-34" d="M 2419 4116 
L 825 1625 
L 2419 1625 
L 2419 4116 
z
M 2253 4666 
L 3047 4666 
L 3047 1625 
L 3713 1625 
L 3713 1100 
L 3047 1100 
L 3047 0 
L 2419 0 
L 2419 1100 
L 313 1100 
L 313 1709 
L 2253 4666 
z
" transform="scale(0.015625)"/>
       </defs>
       <use xlink:href="#DejaVuSans-32"/>
       <use xlink:href="#DejaVuSans-30" transform="translate(63.623047 0)"/>
       <use xlink:href="#DejaVuSans-32" transform="translate(127.246094 0)"/>
       <use xlink:href="#DejaVuSans-34" transform="translate(190.869141 0)"/>
       <use xlink:href="#DejaVuSans-2d" transform="translate(254.492188 0)"/>
       <use xlink:href="#DejaVuSans-30" transform="translate(290.576172 0)"/>
       <use xlink:href="#DejaVuSans-32" transform="translate(354.199219 0)"/>
      </g>
     </g>
    </g>
    <g id="xtick_5">
     <g id="line2d_5">
      <g>
       <use xlink:href="#m9ecceffcce" x="305.394212" y="255.878125" style="stroke: #000000; stroke-width: 0.8"/>
      </g>
     </g>
     <g id="text_5">
      <!-- 2024-04 -->
      <g transform="translate(284.502806 270.476562) scale(0.1 -0.1)">
       <use xlink:href="#DejaVuSans-32"/>
       <use xlink:href="#DejaVuSans-30" transform="translate(63.623047 0)"/>
       <use xlink:href="#DejaVuSans-32" transform="translate(127.246094 0)"/>
       <use xlink:href="#DejaVuSans-34" transform="translate(190.869141 0)"/>
       <use xlink:href="#DejaVuSans-2d" transform="translate(254.492188 0)"/>
       <use xlink:href="#DejaVuSans-30" transform="translate(290.576172 0)"/>
       <use xlink:href="#DejaVuSans-34" transform="translate(354.199219 0)"/>
      </g>
     </g>
    </g>
    <g id="xtick_6">
     <g id="line2d_6">
      <g>
       <use xlink:href="#m9ecceffcce" x="366.107264" y="255.878125" style="stroke: #000000; stroke-width: 0.8"/>
      </g>
     </g>
     <g id="text_6">
      <!-- 2024-06 -->
      <g transform="translate(345.215858 270.476562) scale(0.1 -0.1)">
       <defs>
        <path id="DejaVuSans-36" d="M 2113 2584 
Q 1688 2584 1439 2293 
Q 1191 2003 1191 1497 
Q 1191 994 1439 701 
Q 1688 409 2113 409 
Q 2538 409 2786 701 
Q 3034 994 3034 1497 
Q 3034 2003 2786 2293 
Q 2538 2584 2113 2584 
z
M 3366 4563 
L 3366 3988 
Q 3128 4100 2886 4159 
Q 2644 4219 2406 4219 
Q 1781 4219 1451 3797 
Q 1122 3375 1075 2522 
Q 1259 2794 1537 2939 
Q 1816 3084 2150 3084 
Q 2853 3084 3261 2657 
Q 3669 2231 3669 1497 
Q 3669 778 3244 343 
Q 2819 -91 2113 -91 
Q 1303 -91 875 529 
Q 447 1150 447 2328 
Q 447 3434 972 4092 
Q 1497 4750 2381 4750 
Q 2619 4750 2861 4703 
Q 3103 4656 3366 4563 
z
" transform="scale(0.015625)"/>
       </defs>
       <use xlink:href="#DejaVuSans-32"/>
       <use xlink:href="#DejaVuSans-30" transform="translate(63.623047 0)"/>
       <use xlink:href="#DejaVuSans-32" transform="translate(127.246094 0)"/>
       <use xlink:href="#DejaVuSans-34" transform="translate(190.869141 0)"/>
       <use xlink:href="#DejaVuSans-2d" transform="translate(254.492188 0)"/>
       <use xlink:href="#DejaVuSans-30" transform="translate(290.576172 0)"/>
       <use xlink:href="#DejaVuSans-36" transform="translate(354.199219 0)"/>
      </g>
     </g>
    </g>
    <g id="xtick_7">
     <g id="line2d_7">
      <g>
       <use xlink:href="#m9ecceffcce" x="426.820315" y="255.878125" style="stroke: #000000; stroke-width: 0.8"/>
      </g>
     </g>
     <g id="text_7">
      <!-- 2024-08 -->
      <g transform="translate(405.928909 270.476562) scale(0.1 -0.1)">
       <use xlink:href="#DejaVuSans-32"/>
       <use xlink:href="#DejaVuSans-30" transform="translate(63.623047 0)"/>
       <use xlink:href="#DejaVuSans-32" transform="translate(127.246094 0)"/>
       <use xlink:href="#DejaVuSans-34" transform="translate(190.869141 0)"/>
       <use xlink:href="#DejaVuSans-2d" transform="translate(254.492188 0)"/>
       <use xlink:href="#DejaVuSans-30" transform="translate(290.576172 0)"/>
       <use xlink:href="#DejaVuSans-38" transform="translate(354.199219 0)"/>
      </g>
     </g>
    </g>
    <g id="xtick_8">
     <g id="line2d_8">
      <g>
       <use xlink:href="#m9ecceffcce" x="487.533367" y="255.878125" style="stroke: #000000; stroke-width: 0.8"/>
      </g>
     </g>
     <g id="text_8">
      <!-- 2024-10 -->
      <g transform="translate(466.641961 270.476562) scale(0.1 -0.1)">
       <use xlink:href="#DejaVuSans-32"/>
       <use xlink:href="#DejaVuSans-30" transform="translate(63.623047 0)"/>
       <use xlink:href="#DejaVuSans-32" transform="translate(127.246094 0)"/>
       <use xlink:href="#DejaVuSans-34" transform="translate(190.869141 0)"/>
       <use xlink:href="#DejaVuSans-2d" transform="translate(254.492188 0)"/>
       <use xlink:href="#DejaVuSans-31" transform="translate(290.576172 0)"/>
       <use xlink:href="#DejaVuSans-30" transform="translate(354.199219 0)"/>
      </g>
     </g>
    </g>
    <g id="xtick_9">
     <g id="line2d_9">
      <g>
       <use xlink:href="#m9ecceffcce" x="548.246419" y="255.878125" style="stroke: #000000; stroke-width: 0.8"/>
      </g>
     </g>
     <g id="text_9">
      <!-- 2024-12 -->
      <g transform="translate(527.355012 270.476562) scale(0.1 -0.1)">
       <use xlink:href="#DejaVuSans-32"/>
       <use xlink:href="#DejaVuSans-30" transform="translate(63.623047 0)"/>
       <use xlink:href="#DejaVuSans-32" transform="translate(127.246094 0)"/>
       <use xlink:href="#DejaVuSans-34" transform="translate(190.869141 0)"/>
       <use xlink:href="#DejaVuSans-2d" transform="translate(254.492188 0)"/>
       <use xlink:href="#DejaVuSans-31" transform="translate(290.576172 0)"/>
       <use xlink:href="#DejaVuSans-32" transform="translate(354.199219 0)"/>
      </g>
     </g>
    </g>
    <g id="xtick_10">
     <g id="line2d_10">
      <g>
       <use xlink:href="#m9ecceffcce" x="609.954766" y="255.878125" style="stroke: #000000; stroke-width: 0.8"/>
      </g>
     </g>
     <g id="text_10">
      <!-- 2025-02 -->
      <g transform="translate(589.06336 270.476562) scale(0.1 -0.1)">
       <defs>
        <path id="DejaVuSans-35" d="M 691 4666 
L 3169 4666 
L 3169 4134 
L 1269 4134 
L 1269 2991 
Q 1406 3038 1543 3061 
Q 1681 3084 1819 3084 
Q 2600 3084 3056 2656 
Q 3513 2228 3513 1497 
Q 3513 744 3044 326 
Q 2575 -91 1722 -91 
Q 1428 -91 1123 -41 
Q 819 9 494 109 
L 494 744 
Q 775 591 1075 516 
Q 1375 441 1709 441 
Q 2250 441 2565 725 
Q 2881 1009 2881 1497 
Q 2881 1984 2565 2268 
Q 2250 2553 1709 2553 
Q 1456 2553 1204 2497 
Q 953 2441 691 2322 
L 691 4666 
z
" transform="scale(0.015625)"/>
       </defs>
       <use xlink:href="#DejaVuSans-32"/>
       <use xlink:href="#DejaVuSans-30" transform="translate(63.623047 0)"/>
       <use xlink:href="#DejaVuSans-32" transform="translate(127.246094 0)"/>
       <use xlink:href="#DejaVuSans-35" transform="translate(190.869141 0)"/>
       <use xlink:href="#DejaVuSans-2d" transform="translate(254.492188 0)"/>
       <use xlink:href="#DejaVuSans-30" transform="translate(290.576172 0)"/>
       <use xlink:href="#DejaVuSans-32" transform="translate(354.199219 0)"/>
      </g>
     </g>
    </g>
    <g id="xtick_11">
     <g id="line2d_11">
      <g>
       <use xlink:href="#m9ecceffcce" x="668.677226" y="255.878125" style="stroke: #000000; stroke-width: 0.8"/>
      </g>
     </g>
     <g id="text_11">
      <!-- 2025-04 -->
      <g transform="translate(647.785819 270.476562) scale(0.1 -0.1)">
       <use xlink:href="#DejaVuSans-32"/>
       <use xlink:href="#DejaVuSans-30" transform="translate(63.623047 0)"/>
       <use xlink:href="#DejaVuSans-32" transform="translate(127.246094 0)"/>
       <use xlink:href="#DejaVuSans-35" transform="translate(190.869141 0)"/>
       <use xlink:href="#DejaVuSans-2d" transform="translate(254.492188 0)"/>
       <use xlink:href="#DejaVuSans-30" transform="translate(290.576172 0)"/>
       <use xlink:href="#DejaVuSans-34" transform="translate(354.199219 0)"/>
      </g>
     </g>
    </g>
    <g id="xtick_12">
     <g id="line2d_12">
      <g>
       <use xlink:href="#m9ecceffcce" x="729.390277" y="255.878125" style="stroke: #000000; stroke-width: 0.8"/>
      </g>
     </g>
     <g id="text_12">
      <!-- 2025-06 -->
      <g transform="translate(708.498871 270.476562) scale(0.1 -0.1)">
       <use xlink:href="#DejaVuSans-32"/>
       <use xlink:href="#DejaVuSans-30" transform="translate(63.623047 0)"/>
       <use xlink:href="#DejaVuSans-32" transform="translate(127.246094 0)"/>
       <use xlink:href="#DejaVuSans-35" transform="translate(190.869141 0)"/>
       <use xlink:href="#DejaVuSans-2d" transform="translate(254.492188 0)"/>
       <use xlink:href="#DejaVuSans-30" transform="translate(290.576172 0)"/>
       <use xlink:href="#DejaVuSans-36" transform="translate(354.199219 0)"/>
      </g>
     </g>
    </g>
    <g id="xtick_13">
     <g id="line2d_13">
      <g>
       <use xlink:href="#m9ecceffcce" x="790.103329" y="255.878125" style="stroke: #000000; stroke-width: 0.8"/>
      </g>
     </g>
     <g id="text_13">
      <!-- 2025-08 -->
      <g transform="translate(769.211923 270.476562) scale(0.1 -0.1)">
       <use xlink:href="#DejaVuSans-32"/>
       <use xlink:href="#DejaVuSans-30" transform="translate(63.623047 0)"/>
       <use xlink:href="#DejaVuSans-32" transform="translate(127.246094 0)"/>
       <use xlink:href="#DejaVuSans-35" transform="translate(190.869141 0)"/>
       <use xlink:href="#DejaVuSans-2d" transform="translate(254.492188 0)"/>
       <use xlink:href="#DejaVuSans-30" transform="translate(290.576172 0)"/>
       <use xlink:href="#DejaVuSans-38" transform="translate(354.199219 0)"/>
      </g>
     </g>
    </g>
    <g id="text_14">
     <!-- Time -->
     <g transform="translate(414.089074 284.154687) scale(0.1 -0.1)">
      <defs>
       <path id="DejaVuSans-54" d="M -19 4666 
L 3928 4666 
L 3928 4134 
L 2272 4134 
L 2272 0 
L 1638 0 
L 1638 4134 
L -19 4134 
L -19 4666 
z
" transform="scale(0.015625)"/>
       <path id="DejaVuSans-69" d="M 603 3500 
L 1178 3500 
L 1178 0 
L 603 0 
L 603 3500 
z
M 603 4863 
L 1178 4863 
L 1178 4134 
L 603 4134 
L 603 4863 
z
" transform="scale(0.015625)"/>
       <path id="DejaVuSans-6d" d="M 3328 2828 
Q 3544 3216 3844 3400 
Q 4144 3584 4550 3584 
Q 5097 3584 5394 3201 
Q 5691 2819 5691 2113 
L 5691 0 
L 5113 0 
L 5113 2094 
Q 5113 2597 4934 2840 
Q 4756 3084 4391 3084 
Q 3944 3084 3684 2787 
Q 3425 2491 3425 1978 
L 3425 0 
L 2847 0 
L 2847 2094 
Q 2847 2600 2669 2842 
Q 2491 3084 2119 3084 
Q 1678 3084 1418 2786 
Q 1159 2488 1159 1978 
L 1159 0 
L 581 0 
L 581 3500 
L 1159 3500 
L 1159 2956 
Q 1356 3278 1631 3431 
Q 1906 3584 2284 3584 
Q 2666 3584 2933 3390 
Q 3200 3197 3328 2828 
z
" transform="scale(0.015625)"/>
       <path id="DejaVuSans-65" d="M 3597 1894 
L 3597 1613 
L 953 1613 
Q 991 1019 1311 708 
Q 1631 397 2203 397 
Q 2534 397 2845 478 
Q 3156 559 3463 722 
L 3463 178 
Q 3153 47 2828 -22 
Q 2503 -91 2169 -91 
Q 1331 -91 842 396 
Q 353 884 353 1716 
Q 353 2575 817 3079 
Q 1281 3584 2069 3584 
Q 2775 3584 3186 3129 
Q 3597 2675 3597 1894 
z
M 3022 2063 
Q 3016 2534 2758 2815 
Q 2500 3097 2075 3097 
Q 1594 3097 1305 2825 
Q 1016 2553 972 2059 
L 3022 2063 
z
" transform="scale(0.015625)"/>
      </defs>
      <use xlink:href="#DejaVuSans-54"/>
      <use xlink:href="#DejaVuSans-69" transform="translate(57.958984 0)"/>
      <use xlink:href="#DejaVuSans-6d" transform="translate(85.742188 0)"/>
      <use xlink:href="#DejaVuSans-65" transform="translate(183.154297 0)"/>
     </g>
    </g>
   </g>
   <g id="matplotlib.axis_2">
    <g id="ytick_1">
     <g id="line2d_14">
      <path d="M 46.965625 227.764416 
L 805.67971 227.764416 
" clip-path="url(#pb1a5f37874)" style="fill: none; stroke-dasharray: 0.6,0.99; stroke-dashoffset: 0; stroke: #b0b0b0; stroke-opacity: 0.6; stroke-width: 0.6"/>
     </g>
     <g id="line2d_15">
      <defs>
       <path id="mddaf6df485" d="M 0 0 
L -3.5 0 
" style="stroke: #000000; stroke-width: 0.8"/>
      </defs>
      <g>
       <use xlink:href="#mddaf6df485" x="46.965625" y="227.764416" style="stroke: #000000; stroke-width: 0.8"/>
      </g>
     </g>
     <g id="text_15">
      <!-- 100 -->
      <g transform="translate(20.878125 231.563634) scale(0.1 -0.1)">
       <use xlink:href="#DejaVuSans-31"/>
       <use xlink:href="#DejaVuSans-30" transform="translate(63.623047 0)"/>
       <use xlink:href="#DejaVuSans-30" transform="translate(127.246094 0)"/>
      </g>
     </g>
    </g>
    <g id="ytick_2">
     <g id="line2d_16">
      <path d="M 46.965625 199.139718 
L 805.67971 199.139718 
" clip-path="url(#pb1a5f37874)" style="fill: none; stroke-dasharray: 0.6,0.99; stroke-dashoffset: 0; stroke: #b0b0b0; stroke-opacity: 0.6; stroke-width: 0.6"/>
     </g>
     <g id="line2d_17">
      <g>
       <use xlink:href="#mddaf6df485" x="46.965625" y="199.139718" style="stroke: #000000; stroke-width: 0.8"/>
      </g>
     </g>
     <g id="text_16">
      <!-- 110 -->
      <g transform="translate(20.878125 202.938937) scale(0.1 -0.1)">
       <use xlink:href="#DejaVuSans-31"/>
       <use xlink:href="#DejaVuSans-31" transform="translate(63.623047 0)"/>
       <use xlink:href="#DejaVuSans-30" transform="translate(127.246094 0)"/>
      </g>
     </g>
    </g>
    <g id="ytick_3">
     <g id="line2d_18">
      <path d="M 46.965625 170.51502 
L 805.67971 170.51502 
" clip-path="url(#pb1a5f37874)" style="fill: none; stroke-dasharray: 0.6,0.99; stroke-dashoffset: 0; stroke: #b0b0b0; stroke-opacity: 0.6; stroke-width: 0.6"/>
     </g>
     <g id="line2d_19">
      <g>
       <use xlink:href="#mddaf6df485" x="46.965625" y="170.51502" style="stroke: #000000; stroke-width: 0.8"/>
      </g>
     </g>
     <g id="text_17">
      <!-- 120 -->
      <g transform="translate(20.878125 174.314239) scale(0.1 -0.1)">
       <use xlink:href="#DejaVuSans-31"/>
       <use xlink:href="#DejaVuSans-32" transform="translate(63.623047 0)"/>
       <use xlink:href="#DejaVuSans-30" transform="translate(127.246094 0)"/>
      </g>
     </g>
    </g>
    <g id="ytick_4">
     <g id="line2d_20">
      <path d="M 46.965625 141.890322 
L 805.67971 141.890322 
" clip-path="url(#pb1a5f37874)" style="fill: none; stroke-dasharray: 0.6,0.99; stroke-dashoffset: 0; stroke: #b0b0b0; stroke-opacity: 0.6; stroke-width: 0.6"/>
     </g>
     <g id="line2d_21">
      <g>
       <use xlink:href="#mddaf6df485" x="46.965625" y="141.890322" style="stroke: #000000; stroke-width: 0.8"/>
      </g>
     </g>
     <g id="text_18">
      <!-- 130 -->
      <g transform="translate(20.878125 145.689541) scale(0.1 -0.1)">
       <use xlink:href="#DejaVuSans-31"/>
       <use xlink:href="#DejaVuSans-33" transform="translate(63.623047 0)"/>
       <use xlink:href="#DejaVuSans-30" transform="translate(127.246094 0)"/>
      </g>
     </g>
    </g>
    <g id="ytick_5">
     <g id="line2d_22">
      <path d="M 46.965625 113.265624 
L 805.67971 113.265624 
" clip-path="url(#pb1a5f37874)" style="fill: none; stroke-dasharray: 0.6,0.99; stroke-dashoffset: 0; stroke: #b0b0b0; stroke-opacity: 0.6; stroke-width: 0.6"/>
     </g>
     <g id="line2d_23">
      <g>
       <use xlink:href="#mddaf6df485" x="46.965625" y="113.265624" style="stroke: #000000; stroke-width: 0.8"/>
      </g>
     </g>
     <g id="text_19">
      <!-- 140 -->
      <g transform="translate(20.878125 117.064843) scale(0.1 -0.1)">
       <use xlink:href="#DejaVuSans-31"/>
       <use xlink:href="#DejaVuSans-34" transform="translate(63.623047 0)"/>
       <use xlink:href="#DejaVuSans-30" transform="translate(127.246094 0)"/>
      </g>
     </g>
    </g>
    <g id="ytick_6">
     <g id="line2d_24">
      <path d="M 46.965625 84.640926 
L 805.67971 84.640926 
" clip-path="url(#pb1a5f37874)" style="fill: none; stroke-dasharray: 0.6,0.99; stroke-dashoffset: 0; stroke: #b0b0b0; stroke-opacity: 0.6; stroke-width: 0.6"/>
     </g>
     <g id="line2d_25">
      <g>
       <use xlink:href="#mddaf6df485" x="46.965625" y="84.640926" style="stroke: #000000; stroke-width: 0.8"/>
      </g>
     </g>
     <g id="text_20">
      <!-- 150 -->
      <g transform="translate(20.878125 88.440145) scale(0.1 -0.1)">
       <use xlink:href="#DejaVuSans-31"/>
       <use xlink:href="#DejaVuSans-35" transform="translate(63.623047 0)"/>
       <use xlink:href="#DejaVuSans-30" transform="translate(127.246094 0)"/>
      </g>
     </g>
    </g>
    <g id="ytick_7">
     <g id="line2d_26">
      <path d="M 46.965625 56.016228 
L 805.67971 56.016228 
" clip-path="url(#pb1a5f37874)" style="fill: none; stroke-dasharray: 0.6,0.99; stroke-dashoffset: 0; stroke: #b0b0b0; stroke-opacity: 0.6; stroke-width: 0.6"/>
     </g>
     <g id="line2d_27">
      <g>
       <use xlink:href="#mddaf6df485" x="46.965625" y="56.016228" style="stroke: #000000; stroke-width: 0.8"/>
      </g>
     </g>
     <g id="text_21">
      <!-- 160 -->
      <g transform="translate(20.878125 59.815447) scale(0.1 -0.1)">
       <use xlink:href="#DejaVuSans-31"/>
       <use xlink:href="#DejaVuSans-36" transform="translate(63.623047 0)"/>
       <use xlink:href="#DejaVuSans-30" transform="translate(127.246094 0)"/>
      </g>
     </g>
    </g>
    <g id="ytick_8">
     <g id="line2d_28">
      <path d="M 46.965625 27.391531 
L 805.67971 27.391531 
" clip-path="url(#pb1a5f37874)" style="fill: none; stroke-dasharray: 0.6,0.99; stroke-dashoffset: 0; stroke: #b0b0b0; stroke-opacity: 0.6; stroke-width: 0.6"/>
     </g>
     <g id="line2d_29">
      <g>
       <use xlink:href="#mddaf6df485" x="46.965625" y="27.391531" style="stroke: #000000; stroke-width: 0.8"/>
      </g>
     </g>
     <g id="text_22">
      <!-- 170 -->
      <g transform="translate(20.878125 31.190749) scale(0.1 -0.1)">
       <defs>
        <path id="DejaVuSans-37" d="M 525 4666 
L 3525 4666 
L 3525 4397 
L 1831 0 
L 1172 0 
L 2766 4134 
L 525 4134 
L 525 4666 
z
" transform="scale(0.015625)"/>
       </defs>
       <use xlink:href="#DejaVuSans-31"/>
       <use xlink:href="#DejaVuSans-37" transform="translate(63.623047 0)"/>
       <use xlink:href="#DejaVuSans-30" transform="translate(127.246094 0)"/>
      </g>
     </g>
    </g>
    <g id="text_23">
     <!-- Rolling SMAPE (%) -->
     <g transform="translate(14.798438 184.830156) rotate(-90) scale(0.1 -0.1)">
      <defs>
       <path id="DejaVuSans-52" d="M 2841 2188 
Q 3044 2119 3236 1894 
Q 3428 1669 3622 1275 
L 4263 0 
L 3584 0 
L 2988 1197 
Q 2756 1666 2539 1819 
Q 2322 1972 1947 1972 
L 1259 1972 
L 1259 0 
L 628 0 
L 628 4666 
L 2053 4666 
Q 2853 4666 3247 4331 
Q 3641 3997 3641 3322 
Q 3641 2881 3436 2590 
Q 3231 2300 2841 2188 
z
M 1259 4147 
L 1259 2491 
L 2053 2491 
Q 2509 2491 2742 2702 
Q 2975 2913 2975 3322 
Q 2975 3731 2742 3939 
Q 2509 4147 2053 4147 
L 1259 4147 
z
" transform="scale(0.015625)"/>
       <path id="DejaVuSans-6f" d="M 1959 3097 
Q 1497 3097 1228 2736 
Q 959 2375 959 1747 
Q 959 1119 1226 758 
Q 1494 397 1959 397 
Q 2419 397 2687 759 
Q 2956 1122 2956 1747 
Q 2956 2369 2687 2733 
Q 2419 3097 1959 3097 
z
M 1959 3584 
Q 2709 3584 3137 3096 
Q 3566 2609 3566 1747 
Q 3566 888 3137 398 
Q 2709 -91 1959 -91 
Q 1206 -91 779 398 
Q 353 888 353 1747 
Q 353 2609 779 3096 
Q 1206 3584 1959 3584 
z
" transform="scale(0.015625)"/>
       <path id="DejaVuSans-6c" d="M 603 4863 
L 1178 4863 
L 1178 0 
L 603 0 
L 603 4863 
z
" transform="scale(0.015625)"/>
       <path id="DejaVuSans-6e" d="M 3513 2113 
L 3513 0 
L 2938 0 
L 2938 2094 
Q 2938 2591 2744 2837 
Q 2550 3084 2163 3084 
Q 1697 3084 1428 2787 
Q 1159 2491 1159 1978 
L 1159 0 
L 581 0 
L 581 3500 
L 1159 3500 
L 1159 2956 
Q 1366 3272 1645 3428 
Q 1925 3584 2291 3584 
Q 2894 3584 3203 3211 
Q 3513 2838 3513 2113 
z
" transform="scale(0.015625)"/>
       <path id="DejaVuSans-67" d="M 2906 1791 
Q 2906 2416 2648 2759 
Q 2391 3103 1925 3103 
Q 1463 3103 1205 2759 
Q 947 2416 947 1791 
Q 947 1169 1205 825 
Q 1463 481 1925 481 
Q 2391 481 2648 825 
Q 2906 1169 2906 1791 
z
M 3481 434 
Q 3481 -459 3084 -895 
Q 2688 -1331 1869 -1331 
Q 1566 -1331 1297 -1286 
Q 1028 -1241 775 -1147 
L 775 -588 
Q 1028 -725 1275 -790 
Q 1522 -856 1778 -856 
Q 2344 -856 2625 -561 
Q 2906 -266 2906 331 
L 2906 616 
Q 2728 306 2450 153 
Q 2172 0 1784 0 
Q 1141 0 747 490 
Q 353 981 353 1791 
Q 353 2603 747 3093 
Q 1141 3584 1784 3584 
Q 2172 3584 2450 3431 
Q 2728 3278 2906 2969 
L 2906 3500 
L 3481 3500 
L 3481 434 
z
" transform="scale(0.015625)"/>
       <path id="DejaVuSans-20" transform="scale(0.015625)"/>
       <path id="DejaVuSans-53" d="M 3425 4513 
L 3425 3897 
Q 3066 4069 2747 4153 
Q 2428 4238 2131 4238 
Q 1616 4238 1336 4038 
Q 1056 3838 1056 3469 
Q 1056 3159 1242 3001 
Q 1428 2844 1947 2747 
L 2328 2669 
Q 3034 2534 3370 2195 
Q 3706 1856 3706 1288 
Q 3706 609 3251 259 
Q 2797 -91 1919 -91 
Q 1588 -91 1214 -16 
Q 841 59 441 206 
L 441 856 
Q 825 641 1194 531 
Q 1563 422 1919 422 
Q 2459 422 2753 634 
Q 3047 847 3047 1241 
Q 3047 1584 2836 1778 
Q 2625 1972 2144 2069 
L 1759 2144 
Q 1053 2284 737 2584 
Q 422 2884 422 3419 
Q 422 4038 858 4394 
Q 1294 4750 2059 4750 
Q 2388 4750 2728 4690 
Q 3069 4631 3425 4513 
z
" transform="scale(0.015625)"/>
       <path id="DejaVuSans-4d" d="M 628 4666 
L 1569 4666 
L 2759 1491 
L 3956 4666 
L 4897 4666 
L 4897 0 
L 4281 0 
L 4281 4097 
L 3078 897 
L 2444 897 
L 1241 4097 
L 1241 0 
L 628 0 
L 628 4666 
z
" transform="scale(0.015625)"/>
       <path id="DejaVuSans-41" d="M 2188 4044 
L 1331 1722 
L 3047 1722 
L 2188 4044 
z
M 1831 4666 
L 2547 4666 
L 4325 0 
L 3669 0 
L 3244 1197 
L 1141 1197 
L 716 0 
L 50 0 
L 1831 4666 
z
" transform="scale(0.015625)"/>
       <path id="DejaVuSans-50" d="M 1259 4147 
L 1259 2394 
L 2053 2394 
Q 2494 2394 2734 2622 
Q 2975 2850 2975 3272 
Q 2975 3691 2734 3919 
Q 2494 4147 2053 4147 
L 1259 4147 
z
M 628 4666 
L 2053 4666 
Q 2838 4666 3239 4311 
Q 3641 3956 3641 3272 
Q 3641 2581 3239 2228 
Q 2838 1875 2053 1875 
L 1259 1875 
L 1259 0 
L 628 0 
L 628 4666 
z
" transform="scale(0.015625)"/>
       <path id="DejaVuSans-45" d="M 628 4666 
L 3578 4666 
L 3578 4134 
L 1259 4134 
L 1259 2753 
L 3481 2753 
L 3481 2222 
L 1259 2222 
L 1259 531 
L 3634 531 
L 3634 0 
L 628 0 
L 628 4666 
z
" transform="scale(0.015625)"/>
       <path id="DejaVuSans-28" d="M 1984 4856 
Q 1566 4138 1362 3434 
Q 1159 2731 1159 2009 
Q 1159 1288 1364 580 
Q 1569 -128 1984 -844 
L 1484 -844 
Q 1016 -109 783 600 
Q 550 1309 550 2009 
Q 550 2706 781 3412 
Q 1013 4119 1484 4856 
L 1984 4856 
z
" transform="scale(0.015625)"/>
       <path id="DejaVuSans-25" d="M 4653 2053 
Q 4381 2053 4226 1822 
Q 4072 1591 4072 1178 
Q 4072 772 4226 539 
Q 4381 306 4653 306 
Q 4919 306 5073 539 
Q 5228 772 5228 1178 
Q 5228 1588 5073 1820 
Q 4919 2053 4653 2053 
z
M 4653 2450 
Q 5147 2450 5437 2106 
Q 5728 1763 5728 1178 
Q 5728 594 5436 251 
Q 5144 -91 4653 -91 
Q 4153 -91 3862 251 
Q 3572 594 3572 1178 
Q 3572 1766 3864 2108 
Q 4156 2450 4653 2450 
z
M 1428 4353 
Q 1159 4353 1004 4120 
Q 850 3888 850 3481 
Q 850 3069 1003 2837 
Q 1156 2606 1428 2606 
Q 1700 2606 1854 2837 
Q 2009 3069 2009 3481 
Q 2009 3884 1853 4118 
Q 1697 4353 1428 4353 
z
M 4250 4750 
L 4750 4750 
L 1831 -91 
L 1331 -91 
L 4250 4750 
z
M 1428 4750 
Q 1922 4750 2215 4408 
Q 2509 4066 2509 3481 
Q 2509 2891 2217 2550 
Q 1925 2209 1428 2209 
Q 931 2209 642 2551 
Q 353 2894 353 3481 
Q 353 4063 643 4406 
Q 934 4750 1428 4750 
z
" transform="scale(0.015625)"/>
       <path id="DejaVuSans-29" d="M 513 4856 
L 1013 4856 
Q 1481 4119 1714 3412 
Q 1947 2706 1947 2009 
Q 1947 1309 1714 600 
Q 1481 -109 1013 -844 
L 513 -844 
Q 928 -128 1133 580 
Q 1338 1288 1338 2009 
Q 1338 2731 1133 3434 
Q 928 4138 513 4856 
z
" transform="scale(0.015625)"/>
      </defs>
      <use xlink:href="#DejaVuSans-52"/>
      <use xlink:href="#DejaVuSans-6f" transform="translate(64.982422 0)"/>
      <use xlink:href="#DejaVuSans-6c" transform="translate(126.164062 0)"/>
      <use xlink:href="#DejaVuSans-6c" transform="translate(153.947266 0)"/>
      <use xlink:href="#DejaVuSans-69" transform="translate(181.730469 0)"/>
      <use xlink:href="#DejaVuSans-6e" transform="translate(209.513672 0)"/>
      <use xlink:href="#DejaVuSans-67" transform="translate(272.892578 0)"/>
      <use xlink:href="#DejaVuSans-20" transform="translate(336.369141 0)"/>
      <use xlink:href="#DejaVuSans-53" transform="translate(368.15625 0)"/>
      <use xlink:href="#DejaVuSans-4d" transform="translate(431.632812 0)"/>
      <use xlink:href="#DejaVuSans-41" transform="translate(517.912109 0)"/>
      <use xlink:href="#DejaVuSans-50" transform="translate(586.320312 0)"/>
      <use xlink:href="#DejaVuSans-45" transform="translate(646.623047 0)"/>
      <use xlink:href="#DejaVuSans-20" transform="translate(709.806641 0)"/>
      <use xlink:href="#DejaVuSans-28" transform="translate(741.59375 0)"/>
      <use xlink:href="#DejaVuSans-25" transform="translate(780.607422 0)"/>
      <use xlink:href="#DejaVuSans-29" transform="translate(875.626953 0)"/>
     </g>
    </g>
   </g>
   <g id="line2d_30">
    <path d="M 81.452629 219.120072 
L 88.4197 126.794155 
L 95.386772 116.361137 
L 102.353843 121.657872 
L 109.320915 119.23034 
L 116.287986 97.932475 
L 123.255058 156.898269 
L 130.222129 167.949736 
L 137.189201 144.98526 
L 144.156272 157.404436 
L 151.123344 137.120895 
L 158.090415 137.363224 
L 165.057487 97.196205 
L 172.024558 103.403515 
L 178.99163 56.300793 
L 185.958701 59.101543 
L 192.925773 95.580107 
L 199.892844 80.594386 
L 206.859916 58.418764 
L 213.826987 43.973174 
L 220.794059 108.019359 
L 227.76113 109.285816 
L 234.728202 125.414988 
L 241.695273 80.074822 
L 248.662345 77.988536 
L 255.629416 67.384308 
L 262.596488 65.928004 
L 269.563559 78.444384 
L 276.530631 72.868506 
L 283.497702 73.614729 
L 290.464773 102.794958 
L 297.431845 82.343905 
L 304.398916 55.357142 
L 311.365988 84.540223 
L 318.333059 127.091042 
L 325.300131 153.3938 
L 332.267202 138.581716 
L 339.234274 103.185076 
L 346.201345 63.167737 
L 353.168417 56.174552 
L 360.135488 33.47867 
L 367.10256 77.432671 
L 374.069631 97.807944 
L 381.036703 90.918867 
L 388.003774 86.749022 
L 394.970846 96.44881 
L 401.937917 85.54317 
L 408.904989 53.634145 
L 415.87206 117.827127 
L 422.839132 129.057619 
L 429.806203 132.161737 
L 436.773275 165.164318 
L 443.740346 92.36158 
L 450.707418 70.506992 
L 457.674489 91.315417 
L 464.641561 125.480371 
L 471.608632 104.341768 
L 478.575704 71.174524 
L 485.542775 81.856283 
L 492.509847 102.871884 
L 499.476918 88.053607 
L 506.44399 74.778525 
L 513.411061 100.180494 
L 520.378133 101.671777 
L 527.345204 86.457566 
L 534.312276 70.295795 
L 541.279347 116.828599 
L 548.246419 89.621663 
L 555.21349 44.894601 
L 562.180562 47.454119 
L 569.147633 65.045792 
L 576.114704 79.128711 
L 583.081776 127.073433 
L 590.048847 112.837989 
L 597.015919 117.937058 
L 603.98299 60.784537 
L 610.950062 87.921171 
L 617.917133 76.084588 
L 624.884205 82.17222 
L 631.851276 54.386921 
L 638.818348 94.605239 
L 645.785419 134.49965 
L 652.752491 174.90946 
L 659.719562 139.61186 
L 666.686634 88.619818 
L 673.653705 155.728821 
L 680.620777 113.113712 
L 687.587848 39.581032 
L 694.55492 61.257538 
L 701.521991 65.963548 
L 708.489063 58.386583 
L 715.456134 80.197849 
L 722.423206 103.013504 
L 729.390277 92.330441 
L 736.357349 103.304908 
L 743.32442 89.082114 
L 750.291492 115.791701 
L 757.258563 72.674433 
L 764.225635 87.715423 
L 771.192706 74.44619 
" clip-path="url(#pb1a5f37874)" style="fill: none; stroke: #1f77b4; stroke-width: 1.6; stroke-linecap: square"/>
   </g>
   <g id="line2d_31">
    <path d="M 81.452629 109.370805 
L 88.4197 109.112327 
L 95.386772 108.85385 
L 102.353843 108.595372 
L 109.320915 108.336894 
L 116.287986 108.078417 
L 123.255058 107.819939 
L 130.222129 107.561461 
L 137.189201 107.302984 
L 144.156272 107.044506 
L 151.123344 106.786028 
L 158.090415 106.52755 
L 165.057487 106.269073 
L 172.024558 106.010595 
L 178.99163 105.752117 
L 185.958701 105.49364 
L 192.925773 105.235162 
L 199.892844 104.976684 
L 206.859916 104.718206 
L 213.826987 104.459729 
L 220.794059 104.201251 
L 227.76113 103.942773 
L 234.728202 103.684296 
L 241.695273 103.425818 
L 248.662345 103.16734 
L 255.629416 102.908863 
L 262.596488 102.650385 
L 269.563559 102.391907 
L 276.530631 102.133429 
L 283.497702 101.874952 
L 290.464773 101.616474 
L 297.431845 101.357996 
L 304.398916 101.099519 
L 311.365988 100.841041 
L 318.333059 100.582563 
L 325.300131 100.324085 
L 332.267202 100.065608 
L 339.234274 99.80713 
L 346.201345 99.548652 
L 353.168417 99.290175 
L 360.135488 99.031697 
L 367.10256 98.773219 
L 374.069631 98.514741 
L 381.036703 98.256264 
L 388.003774 97.997786 
L 394.970846 97.739308 
L 401.937917 97.480831 
L 408.904989 97.222353 
L 415.87206 96.963875 
L 422.839132 96.705398 
L 429.806203 96.44692 
L 436.773275 96.188442 
L 443.740346 95.929964 
L 450.707418 95.671487 
L 457.674489 95.413009 
L 464.641561 95.154531 
L 471.608632 94.896054 
L 478.575704 94.637576 
L 485.542775 94.379098 
L 492.509847 94.12062 
L 499.476918 93.862143 
L 506.44399 93.603665 
L 513.411061 93.345187 
L 520.378133 93.08671 
L 527.345204 92.828232 
L 534.312276 92.569754 
L 541.279347 92.311277 
L 548.246419 92.052799 
L 555.21349 91.794321 
L 562.180562 91.535843 
L 569.147633 91.277366 
L 576.114704 91.018888 
L 583.081776 90.76041 
L 590.048847 90.501933 
L 597.015919 90.243455 
L 603.98299 89.984977 
L 610.950062 89.726499 
L 617.917133 89.468022 
L 624.884205 89.209544 
L 631.851276 88.951066 
L 638.818348 88.692589 
L 645.785419 88.434111 
L 652.752491 88.175633 
L 659.719562 87.917156 
L 666.686634 87.658678 
L 673.653705 87.4002 
L 680.620777 87.141722 
L 687.587848 86.883245 
L 694.55492 86.624767 
L 701.521991 86.366289 
L 708.489063 86.107812 
L 715.456134 85.849334 
L 722.423206 85.590856 
L 729.390277 85.332378 
L 736.357349 85.073901 
L 743.32442 84.815423 
L 750.291492 84.556945 
L 757.258563 84.298468 
L 764.225635 84.03999 
L 771.192706 83.781512 
" clip-path="url(#pb1a5f37874)" style="fill: none; stroke-dasharray: 4.07,1.76; stroke-dashoffset: 0; stroke: #1f77b4; stroke-opacity: 0.9; stroke-width: 1.1"/>
   </g>
   <g id="line2d_32">
    <path d="M 81.452629 165.429044 
L 88.4197 165.290419 
L 95.386772 165.151793 
L 102.353843 165.013167 
L 109.320915 164.874542 
L 116.287986 164.735916 
L 123.255058 164.59729 
L 130.222129 164.458665 
L 137.189201 164.320039 
L 144.156272 164.181414 
L 151.123344 164.042788 
L 158.090415 163.904162 
L 165.057487 163.765537 
L 172.024558 163.626911 
L 178.99163 163.488285 
L 185.958701 163.34966 
L 192.925773 163.211034 
L 199.892844 163.072409 
L 206.859916 162.933783 
L 213.826987 162.795157 
L 220.794059 162.656532 
L 227.76113 162.517906 
L 234.728202 162.37928 
L 241.695273 162.240655 
L 248.662345 162.102029 
L 255.629416 161.963403 
L 262.596488 161.824778 
L 269.563559 161.686152 
L 276.530631 161.547527 
L 283.497702 161.408901 
L 290.464773 161.270275 
L 297.431845 161.13165 
L 304.398916 160.993024 
L 311.365988 160.854398 
L 318.333059 160.715773 
L 325.300131 160.577147 
L 332.267202 160.438522 
L 339.234274 160.299896 
L 346.201345 160.16127 
L 353.168417 160.022645 
L 360.135488 159.884019 
L 367.10256 159.745393 
L 374.069631 159.606768 
L 381.036703 159.468142 
L 388.003774 159.329516 
L 394.970846 159.190891 
L 401.937917 159.052265 
L 408.904989 158.91364 
L 415.87206 158.775014 
L 422.839132 158.636388 
L 429.806203 158.497763 
L 436.773275 158.359137 
L 443.740346 158.220511 
L 450.707418 158.081886 
L 457.674489 157.94326 
L 464.641561 157.804635 
L 471.608632 157.666009 
L 478.575704 157.527383 
L 485.542775 157.388758 
L 492.509847 157.250132 
L 499.476918 157.111506 
L 506.44399 156.972881 
L 513.411061 156.834255 
L 520.378133 156.695629 
L 527.345204 156.557004 
L 534.312276 156.418378 
L 541.279347 156.279753 
L 548.246419 156.141127 
L 555.21349 156.002501 
L 562.180562 155.863876 
L 569.147633 155.72525 
L 576.114704 155.586624 
L 583.081776 155.447999 
L 590.048847 155.309373 
L 597.015919 155.170748 
L 603.98299 155.032122 
L 610.950062 154.893496 
L 617.917133 154.754871 
L 624.884205 154.616245 
L 631.851276 154.477619 
L 638.818348 154.338994 
L 645.785419 154.200368 
L 652.752491 154.061742 
L 659.719562 153.923117 
L 666.686634 153.784491 
L 673.653705 153.645866 
L 680.620777 153.50724 
L 687.587848 153.368614 
L 694.55492 153.229989 
L 701.521991 153.091363 
L 708.489063 152.952737 
L 715.456134 152.814112 
L 722.423206 152.675486 
L 729.390277 152.536861 
L 736.357349 152.398235 
L 743.32442 152.259609 
L 750.291492 152.120984 
L 757.258563 151.982358 
L 764.225635 151.843732 
L 771.192706 151.705107 
" clip-path="url(#pb1a5f37874)" style="fill: none; stroke-dasharray: 4.07,1.76; stroke-dashoffset: 0; stroke: #ff7f0e; stroke-opacity: 0.9; stroke-width: 1.1"/>
   </g>
   <g id="line2d_33">
    <path d="M 81.452629 108.897989 
L 88.4197 108.635864 
L 95.386772 108.373739 
L 102.353843 108.111614 
L 109.320915 107.849489 
L 116.287986 107.587364 
L 123.255058 107.325239 
L 130.222129 107.063114 
L 137.189201 106.800989 
L 144.156272 106.538865 
L 151.123344 106.27674 
L 158.090415 106.014615 
L 165.057487 105.75249 
L 172.024558 105.490365 
L 178.99163 105.22824 
L 185.958701 104.966115 
L 192.925773 104.70399 
L 199.892844 104.441865 
L 206.859916 104.17974 
L 213.826987 103.917615 
L 220.794059 103.65549 
L 227.76113 103.393365 
L 234.728202 103.13124 
L 241.695273 102.869115 
L 248.662345 102.606991 
L 255.629416 102.344866 
L 262.596488 102.082741 
L 269.563559 101.820616 
L 276.530631 101.558491 
L 283.497702 101.296366 
L 290.464773 101.034241 
L 297.431845 100.772116 
L 304.398916 100.509991 
L 311.365988 100.247866 
L 318.333059 99.985741 
L 325.300131 99.723616 
L 332.267202 99.461491 
L 339.234274 99.199366 
L 346.201345 98.937242 
L 353.168417 98.675117 
L 360.135488 98.412992 
L 367.10256 98.150867 
L 374.069631 97.888742 
L 381.036703 97.626617 
L 388.003774 97.364492 
L 394.970846 97.102367 
L 401.937917 96.840242 
L 408.904989 96.578117 
L 415.87206 96.315992 
L 422.839132 96.053867 
L 429.806203 95.791742 
L 436.773275 95.529617 
L 443.740346 95.267493 
L 450.707418 95.005368 
L 457.674489 94.743243 
L 464.641561 94.481118 
L 471.608632 94.218993 
L 478.575704 93.956868 
L 485.542775 93.694743 
L 492.509847 93.432618 
L 499.476918 93.170493 
L 506.44399 92.908368 
L 513.411061 92.646243 
L 520.378133 92.384118 
L 527.345204 92.121993 
L 534.312276 91.859868 
L 541.279347 91.597743 
L 548.246419 91.335619 
L 555.21349 91.073494 
L 562.180562 90.811369 
L 569.147633 90.549244 
L 576.114704 90.287119 
L 583.081776 90.024994 
L 590.048847 89.762869 
L 597.015919 89.500744 
L 603.98299 89.238619 
L 610.950062 88.976494 
L 617.917133 88.714369 
L 624.884205 88.452244 
L 631.851276 88.190119 
L 638.818348 87.927994 
L 645.785419 87.66587 
L 652.752491 87.403745 
L 659.719562 87.14162 
L 666.686634 86.879495 
L 673.653705 86.61737 
L 680.620777 86.355245 
L 687.587848 86.09312 
L 694.55492 85.830995 
L 701.521991 85.56887 
L 708.489063 85.306745 
L 715.456134 85.04462 
L 722.423206 84.782495 
L 729.390277 84.52037 
L 736.357349 84.258245 
L 743.32442 83.996121 
L 750.291492 83.733996 
L 757.258563 83.471871 
L 764.225635 83.209746 
L 771.192706 82.947621 
" clip-path="url(#pb1a5f37874)" style="fill: none; stroke-dasharray: 4.07,1.76; stroke-dashoffset: 0; stroke: #2ca02c; stroke-opacity: 0.9; stroke-width: 1.1"/>
   </g>
   <g id="patch_3">
    <path d="M 46.965625 255.878125 
L 46.965625 22.318125 
" style="fill: none; stroke: #000000; stroke-width: 0.8; stroke-linejoin: miter; stroke-linecap: square"/>
   </g>
   <g id="patch_4">
    <path d="M 46.965625 255.878125 
L 805.67971 255.878125 
" style="fill: none; stroke: #000000; stroke-width: 0.8; stroke-linejoin: miter; stroke-linecap: square"/>
   </g>
   <g id="line2d_34">
    <path d="M 81.452629 56.237029 
L 88.4197 118.688448 
L 95.386772 174.364346 
L 102.353843 202.04071 
L 109.320915 214.11077 
L 116.287986 142.887708 
L 123.255058 236.226508 
L 130.222129 243.133076 
L 137.189201 116.979081 
L 144.156272 218.095668 
L 151.123344 143.678688 
L 158.090415 201.155918 
L 165.057487 173.023787 
L 172.024558 152.777158 
L 178.99163 137.562044 
L 185.958701 148.993253 
L 192.925773 210.580467 
L 199.892844 149.688444 
L 206.859916 112.631607 
L 213.826987 125.993162 
L 220.794059 190.563226 
L 227.76113 173.362751 
L 234.728202 173.140413 
L 241.695273 100.117994 
L 248.662345 166.077263 
L 255.629416 123.624731 
L 262.596488 150.077527 
L 269.563559 140.850065 
L 276.530631 148.95554 
L 283.497702 174.201169 
L 290.464773 133.983573 
L 297.431845 146.917103 
L 304.398916 141.315583 
L 311.365988 175.763097 
L 318.333059 125.78128 
L 325.300131 158.251866 
L 332.267202 205.973463 
L 339.234274 128.264491 
L 346.201345 158.550908 
L 353.168417 165.580645 
L 360.135488 121.5903 
L 367.10256 137.70921 
L 374.069631 133.61776 
L 381.036703 156.938269 
L 388.003774 208.262203 
L 394.970846 202.226513 
L 401.937917 155.354343 
L 408.904989 154.28035 
L 415.87206 245.261761 
L 422.839132 150.421294 
L 429.806203 173.887064 
L 436.773275 140.439713 
L 443.740346 149.905696 
L 450.707418 129.474725 
L 457.674489 172.473556 
L 464.641561 207.16928 
L 471.608632 132.030262 
L 478.575704 153.110255 
L 485.542775 198.989392 
L 492.509847 203.226597 
L 499.476918 208.777914 
L 506.44399 196.579894 
L 513.411061 230.169304 
L 520.378133 172.677331 
L 527.345204 116.337129 
L 534.312276 149.675802 
L 541.279347 208.262935 
L 548.246419 192.074328 
L 555.21349 128.913001 
L 562.180562 146.078905 
L 569.147633 122.364628 
L 576.114704 86.634295 
L 583.081776 213.755977 
L 590.048847 211.230469 
L 597.015919 163.047782 
L 603.98299 145.55594 
L 610.950062 123.537016 
L 617.917133 123.738757 
L 624.884205 149.173788 
L 631.851276 122.311414 
L 638.818348 156.662022 
L 645.785419 99.682925 
L 652.752491 210.79293 
L 659.719562 227.622746 
L 666.686634 118.196473 
L 673.653705 133.272673 
L 680.620777 78.795858 
L 687.587848 102.106904 
L 694.55492 141.164715 
L 701.521991 154.686044 
L 708.489063 128.335853 
L 715.456134 128.211874 
L 722.423206 188.306466 
L 729.390277 171.491108 
L 736.357349 168.630571 
L 743.32442 159.355652 
L 750.291492 203.231982 
L 757.258563 119.219256 
L 764.225635 135.541892 
L 771.192706 133.933894 
" clip-path="url(#pb1a5f37874)" style="fill: none; stroke-dasharray: 8,4; stroke-dashoffset: 0; stroke: #ff7f0e; stroke-width: 1.6"/>
   </g>
   <g id="text_24">
    <!-- Rolling SMAPE (window=78) — SPY -->
    <g transform="translate(320.948605 16.318125) scale(0.12 -0.12)">
     <defs>
      <path id="DejaVuSans-77" d="M 269 3500 
L 844 3500 
L 1563 769 
L 2278 3500 
L 2956 3500 
L 3675 769 
L 4391 3500 
L 4966 3500 
L 4050 0 
L 3372 0 
L 2619 2869 
L 1863 0 
L 1184 0 
L 269 3500 
z
" transform="scale(0.015625)"/>
      <path id="DejaVuSans-64" d="M 2906 2969 
L 2906 4863 
L 3481 4863 
L 3481 0 
L 2906 0 
L 2906 525 
Q 2725 213 2448 61 
Q 2172 -91 1784 -91 
Q 1150 -91 751 415 
Q 353 922 353 1747 
Q 353 2572 751 3078 
Q 1150 3584 1784 3584 
Q 2172 3584 2448 3432 
Q 2725 3281 2906 2969 
z
M 947 1747 
Q 947 1113 1208 752 
Q 1469 391 1925 391 
Q 2381 391 2643 752 
Q 2906 1113 2906 1747 
Q 2906 2381 2643 2742 
Q 2381 3103 1925 3103 
Q 1469 3103 1208 2742 
Q 947 2381 947 1747 
z
" transform="scale(0.015625)"/>
      <path id="DejaVuSans-3d" d="M 678 2906 
L 4684 2906 
L 4684 2381 
L 678 2381 
L 678 2906 
z
M 678 1631 
L 4684 1631 
L 4684 1100 
L 678 1100 
L 678 1631 
z
" transform="scale(0.015625)"/>
      <path id="DejaVuSans-2014" d="M 313 1978 
L 6088 1978 
L 6088 1528 
L 313 1528 
L 313 1978 
z
" transform="scale(0.015625)"/>
      <path id="DejaVuSans-59" d="M -13 4666 
L 666 4666 
L 1959 2747 
L 3244 4666 
L 3922 4666 
L 2272 2222 
L 2272 0 
L 1638 0 
L 1638 2222 
L -13 4666 
z
" transform="scale(0.015625)"/>
     </defs>
     <use xlink:href="#DejaVuSans-52"/>
     <use xlink:href="#DejaVuSans-6f" transform="translate(64.982422 0)"/>
     <use xlink:href="#DejaVuSans-6c" transform="translate(126.164062 0)"/>
     <use xlink:href="#DejaVuSans-6c" transform="translate(153.947266 0)"/>
     <use xlink:href="#DejaVuSans-69" transform="translate(181.730469 0)"/>
     <use xlink:href="#DejaVuSans-6e" transform="translate(209.513672 0)"/>
     <use xlink:href="#DejaVuSans-67" transform="translate(272.892578 0)"/>
     <use xlink:href="#DejaVuSans-20" transform="translate(336.369141 0)"/>
     <use xlink:href="#DejaVuSans-53" transform="translate(368.15625 0)"/>
     <use xlink:href="#DejaVuSans-4d" transform="translate(431.632812 0)"/>
     <use xlink:href="#DejaVuSans-41" transform="translate(517.912109 0)"/>
     <use xlink:href="#DejaVuSans-50" transform="translate(586.320312 0)"/>
     <use xlink:href="#DejaVuSans-45" transform="translate(646.623047 0)"/>
     <use xlink:href="#DejaVuSans-20" transform="translate(709.806641 0)"/>
     <use xlink:href="#DejaVuSans-28" transform="translate(741.59375 0)"/>
     <use xlink:href="#DejaVuSans-77" transform="translate(780.607422 0)"/>
     <use xlink:href="#DejaVuSans-69" transform="translate(862.394531 0)"/>
     <use xlink:href="#DejaVuSans-6e" transform="translate(890.177734 0)"/>
     <use xlink:href="#DejaVuSans-64" transform="translate(953.556641 0)"/>
     <use xlink:href="#DejaVuSans-6f" transform="translate(1017.033203 0)"/>
     <use xlink:href="#DejaVuSans-77" transform="translate(1078.214844 0)"/>
     <use xlink:href="#DejaVuSans-3d" transform="translate(1160.001953 0)"/>
     <use xlink:href="#DejaVuSans-37" transform="translate(1243.791016 0)"/>
     <use xlink:href="#DejaVuSans-38" transform="translate(1307.414062 0)"/>
     <use xlink:href="#DejaVuSans-29" transform="translate(1371.037109 0)"/>
     <use xlink:href="#DejaVuSans-20" transform="translate(1410.050781 0)"/>
     <use xlink:href="#DejaVuSans-2014" transform="translate(1441.837891 0)"/>
     <use xlink:href="#DejaVuSans-20" transform="translate(1541.837891 0)"/>
     <use xlink:href="#DejaVuSans-53" transform="translate(1573.625 0)"/>
     <use xlink:href="#DejaVuSans-50" transform="translate(1637.101562 0)"/>
     <use xlink:href="#DejaVuSans-59" transform="translate(1695.154297 0)"/>
    </g>
   </g>
   <g id="line2d_35">
    <path d="M 81.452629 191.887647 
L 88.4197 130.921449 
L 95.386772 113.961257 
L 102.353843 121.484463 
L 109.320915 119.474203 
L 116.287986 102.266291 
L 123.255058 156.974028 
L 130.222129 167.730096 
L 137.189201 142.499526 
L 144.156272 159.399668 
L 151.123344 137.746882 
L 158.090415 135.447394 
L 165.057487 95.692668 
L 172.024558 99.955671 
L 178.99163 55.23999 
L 185.958701 58.04322 
L 192.925773 94.229915 
L 199.892844 80.954013 
L 206.859916 57.576603 
L 213.826987 42.912366 
L 220.794059 107.812859 
L 227.76113 107.414358 
L 234.728202 125.342081 
L 241.695273 80.922416 
L 248.662345 78.125477 
L 255.629416 66.801692 
L 262.596488 65.834275 
L 269.563559 80.297914 
L 276.530631 72.154997 
L 283.497702 72.784728 
L 290.464773 104.03422 
L 297.431845 81.174477 
L 304.398916 54.613855 
L 311.365988 87.031375 
L 318.333059 127.084341 
L 325.300131 153.166391 
L 332.267202 138.404524 
L 339.234274 102.812444 
L 346.201345 62.438319 
L 353.168417 55.769842 
L 360.135488 32.934489 
L 367.10256 76.416132 
L 374.069631 103.753281 
L 381.036703 90.378283 
L 388.003774 86.167102 
L 394.970846 95.871183 
L 401.937917 84.200619 
L 408.904989 53.558458 
L 415.87206 117.356849 
L 422.839132 130.947676 
L 429.806203 134.470282 
L 436.773275 163.592961 
L 443.740346 92.485347 
L 450.707418 70.952794 
L 457.674489 90.89885 
L 464.641561 126.848425 
L 471.608632 104.775946 
L 478.575704 71.398466 
L 485.542775 81.587998 
L 492.509847 102.956244 
L 499.476918 87.63179 
L 506.44399 74.609402 
L 513.411061 99.912035 
L 520.378133 101.33967 
L 527.345204 90.453749 
L 534.312276 70.244174 
L 541.279347 116.391888 
L 548.246419 87.801442 
L 555.21349 44.647106 
L 562.180562 47.282738 
L 569.147633 67.013265 
L 576.114704 78.758133 
L 583.081776 126.006948 
L 590.048847 113.759657 
L 597.015919 114.975423 
L 603.98299 59.993958 
L 610.950062 89.914956 
L 617.917133 78.311563 
L 624.884205 80.482671 
L 631.851276 54.052494 
L 638.818348 93.327169 
L 645.785419 138.682527 
L 652.752491 170.322413 
L 659.719562 140.163455 
L 666.686634 89.051043 
L 673.653705 158.524073 
L 680.620777 113.984558 
L 687.587848 43.088582 
L 694.55492 65.339918 
L 701.521991 69.773508 
L 708.489063 59.917896 
L 715.456134 77.41596 
L 722.423206 102.198746 
L 729.390277 87.517123 
L 736.357349 98.648923 
L 743.32442 82.685762 
L 750.291492 106.888557 
L 757.258563 67.086573 
L 764.225635 79.418852 
L 771.192706 64.692467 
" clip-path="url(#pb1a5f37874)" style="fill: none; stroke-dasharray: 4.8,3.2; stroke-dashoffset: 0; stroke: #2ca02c; stroke-width: 1.6"/>
   </g>
   <g id="legend_1">
    <g id="line2d_36">
     <path d="M 55.065625 34.106719 
L 64.065625 34.106719 
L 73.065625 34.106719 
" style="fill: none; stroke: #1f77b4; stroke-width: 1.6; stroke-linecap: square"/>
    </g>
    <g id="text_25">
     <!-- Prime Modulo (PM) -->
     <g transform="translate(80.265625 37.256719) scale(0.09 -0.09)">
      <defs>
       <path id="DejaVuSans-72" d="M 2631 2963 
Q 2534 3019 2420 3045 
Q 2306 3072 2169 3072 
Q 1681 3072 1420 2755 
Q 1159 2438 1159 1844 
L 1159 0 
L 581 0 
L 581 3500 
L 1159 3500 
L 1159 2956 
Q 1341 3275 1631 3429 
Q 1922 3584 2338 3584 
Q 2397 3584 2469 3576 
Q 2541 3569 2628 3553 
L 2631 2963 
z
" transform="scale(0.015625)"/>
       <path id="DejaVuSans-75" d="M 544 1381 
L 544 3500 
L 1119 3500 
L 1119 1403 
Q 1119 906 1312 657 
Q 1506 409 1894 409 
Q 2359 409 2629 706 
Q 2900 1003 2900 1516 
L 2900 3500 
L 3475 3500 
L 3475 0 
L 2900 0 
L 2900 538 
Q 2691 219 2414 64 
Q 2138 -91 1772 -91 
Q 1169 -91 856 284 
Q 544 659 544 1381 
z
M 1991 3584 
L 1991 3584 
z
" transform="scale(0.015625)"/>
      </defs>
      <use xlink:href="#DejaVuSans-50"/>
      <use xlink:href="#DejaVuSans-72" transform="translate(58.552734 0)"/>
      <use xlink:href="#DejaVuSans-69" transform="translate(99.666016 0)"/>
      <use xlink:href="#DejaVuSans-6d" transform="translate(127.449219 0)"/>
      <use xlink:href="#DejaVuSans-65" transform="translate(224.861328 0)"/>
      <use xlink:href="#DejaVuSans-20" transform="translate(286.384766 0)"/>
      <use xlink:href="#DejaVuSans-4d" transform="translate(318.171875 0)"/>
      <use xlink:href="#DejaVuSans-6f" transform="translate(404.451172 0)"/>
      <use xlink:href="#DejaVuSans-64" transform="translate(465.632812 0)"/>
      <use xlink:href="#DejaVuSans-75" transform="translate(529.109375 0)"/>
      <use xlink:href="#DejaVuSans-6c" transform="translate(592.488281 0)"/>
      <use xlink:href="#DejaVuSans-6f" transform="translate(620.271484 0)"/>
      <use xlink:href="#DejaVuSans-20" transform="translate(681.453125 0)"/>
      <use xlink:href="#DejaVuSans-28" transform="translate(713.240234 0)"/>
      <use xlink:href="#DejaVuSans-50" transform="translate(752.253906 0)"/>
      <use xlink:href="#DejaVuSans-4d" transform="translate(812.556641 0)"/>
      <use xlink:href="#DejaVuSans-29" transform="translate(898.835938 0)"/>
     </g>
    </g>
    <g id="line2d_37">
     <path d="M 182.671562 34.106719 
L 191.671562 34.106719 
L 200.671562 34.106719 
" style="fill: none; stroke-dasharray: 8,4; stroke-dashoffset: 0; stroke: #ff7f0e; stroke-width: 1.6"/>
    </g>
    <g id="text_26">
     <!-- Contiguous Prime (CP) -->
     <g transform="translate(207.871562 37.256719) scale(0.09 -0.09)">
      <defs>
       <path id="DejaVuSans-43" d="M 4122 4306 
L 4122 3641 
Q 3803 3938 3442 4084 
Q 3081 4231 2675 4231 
Q 1875 4231 1450 3742 
Q 1025 3253 1025 2328 
Q 1025 1406 1450 917 
Q 1875 428 2675 428 
Q 3081 428 3442 575 
Q 3803 722 4122 1019 
L 4122 359 
Q 3791 134 3420 21 
Q 3050 -91 2638 -91 
Q 1578 -91 968 557 
Q 359 1206 359 2328 
Q 359 3453 968 4101 
Q 1578 4750 2638 4750 
Q 3056 4750 3426 4639 
Q 3797 4528 4122 4306 
z
" transform="scale(0.015625)"/>
       <path id="DejaVuSans-74" d="M 1172 4494 
L 1172 3500 
L 2356 3500 
L 2356 3053 
L 1172 3053 
L 1172 1153 
Q 1172 725 1289 603 
Q 1406 481 1766 481 
L 2356 481 
L 2356 0 
L 1766 0 
Q 1100 0 847 248 
Q 594 497 594 1153 
L 594 3053 
L 172 3053 
L 172 3500 
L 594 3500 
L 594 4494 
L 1172 4494 
z
" transform="scale(0.015625)"/>
       <path id="DejaVuSans-73" d="M 2834 3397 
L 2834 2853 
Q 2591 2978 2328 3040 
Q 2066 3103 1784 3103 
Q 1356 3103 1142 2972 
Q 928 2841 928 2578 
Q 928 2378 1081 2264 
Q 1234 2150 1697 2047 
L 1894 2003 
Q 2506 1872 2764 1633 
Q 3022 1394 3022 966 
Q 3022 478 2636 193 
Q 2250 -91 1575 -91 
Q 1294 -91 989 -36 
Q 684 19 347 128 
L 347 722 
Q 666 556 975 473 
Q 1284 391 1588 391 
Q 1994 391 2212 530 
Q 2431 669 2431 922 
Q 2431 1156 2273 1281 
Q 2116 1406 1581 1522 
L 1381 1569 
Q 847 1681 609 1914 
Q 372 2147 372 2553 
Q 372 3047 722 3315 
Q 1072 3584 1716 3584 
Q 2034 3584 2315 3537 
Q 2597 3491 2834 3397 
z
" transform="scale(0.015625)"/>
      </defs>
      <use xlink:href="#DejaVuSans-43"/>
      <use xlink:href="#DejaVuSans-6f" transform="translate(69.824219 0)"/>
      <use xlink:href="#DejaVuSans-6e" transform="translate(131.005859 0)"/>
      <use xlink:href="#DejaVuSans-74" transform="translate(194.384766 0)"/>
      <use xlink:href="#DejaVuSans-69" transform="translate(233.59375 0)"/>
      <use xlink:href="#DejaVuSans-67" transform="translate(261.376953 0)"/>
      <use xlink:href="#DejaVuSans-75" transform="translate(324.853516 0)"/>
      <use xlink:href="#DejaVuSans-6f" transform="translate(388.232422 0)"/>
      <use xlink:href="#DejaVuSans-75" transform="translate(449.414062 0)"/>
      <use xlink:href="#DejaVuSans-73" transform="translate(512.792969 0)"/>
      <use xlink:href="#DejaVuSans-20" transform="translate(564.892578 0)"/>
      <use xlink:href="#DejaVuSans-50" transform="translate(596.679688 0)"/>
      <use xlink:href="#DejaVuSans-72" transform="translate(655.232422 0)"/>
      <use xlink:href="#DejaVuSans-69" transform="translate(696.345703 0)"/>
      <use xlink:href="#DejaVuSans-6d" transform="translate(724.128906 0)"/>
      <use xlink:href="#DejaVuSans-65" transform="translate(821.541016 0)"/>
      <use xlink:href="#DejaVuSans-20" transform="translate(883.064453 0)"/>
      <use xlink:href="#DejaVuSans-28" transform="translate(914.851562 0)"/>
      <use xlink:href="#DejaVuSans-43" transform="translate(953.865234 0)"/>
      <use xlink:href="#DejaVuSans-50" transform="translate(1023.689453 0)"/>
      <use xlink:href="#DejaVuSans-29" transform="translate(1083.992188 0)"/>
     </g>
    </g>
    <g id="line2d_38">
     <path d="M 326.940156 34.106719 
L 335.940156 34.106719 
L 344.940156 34.106719 
" style="fill: none; stroke-dasharray: 4.8,3.2; stroke-dashoffset: 0; stroke: #2ca02c; stroke-width: 1.6"/>
    </g>
    <g id="text_27">
     <!-- Contiguous Random (control) -->
     <g transform="translate(352.140156 37.256719) scale(0.09 -0.09)">
      <defs>
       <path id="DejaVuSans-61" d="M 2194 1759 
Q 1497 1759 1228 1600 
Q 959 1441 959 1056 
Q 959 750 1161 570 
Q 1363 391 1709 391 
Q 2188 391 2477 730 
Q 2766 1069 2766 1631 
L 2766 1759 
L 2194 1759 
z
M 3341 1997 
L 3341 0 
L 2766 0 
L 2766 531 
Q 2569 213 2275 61 
Q 1981 -91 1556 -91 
Q 1019 -91 701 211 
Q 384 513 384 1019 
Q 384 1609 779 1909 
Q 1175 2209 1959 2209 
L 2766 2209 
L 2766 2266 
Q 2766 2663 2505 2880 
Q 2244 3097 1772 3097 
Q 1472 3097 1187 3025 
Q 903 2953 641 2809 
L 641 3341 
Q 956 3463 1253 3523 
Q 1550 3584 1831 3584 
Q 2591 3584 2966 3190 
Q 3341 2797 3341 1997 
z
" transform="scale(0.015625)"/>
       <path id="DejaVuSans-63" d="M 3122 3366 
L 3122 2828 
Q 2878 2963 2633 3030 
Q 2388 3097 2138 3097 
Q 1578 3097 1268 2742 
Q 959 2388 959 1747 
Q 959 1106 1268 751 
Q 1578 397 2138 397 
Q 2388 397 2633 464 
Q 2878 531 3122 666 
L 3122 134 
Q 2881 22 2623 -34 
Q 2366 -91 2075 -91 
Q 1284 -91 818 406 
Q 353 903 353 1747 
Q 353 2603 823 3093 
Q 1294 3584 2113 3584 
Q 2378 3584 2631 3529 
Q 2884 3475 3122 3366 
z
" transform="scale(0.015625)"/>
      </defs>
      <use xlink:href="#DejaVuSans-43"/>
      <use xlink:href="#DejaVuSans-6f" transform="translate(69.824219 0)"/>
      <use xlink:href="#DejaVuSans-6e" transform="translate(131.005859 0)"/>
      <use xlink:href="#DejaVuSans-74" transform="translate(194.384766 0)"/>
      <use xlink:href="#DejaVuSans-69" transform="translate(233.59375 0)"/>
      <use xlink:href="#DejaVuSans-67" transform="translate(261.376953 0)"/>
      <use xlink:href="#DejaVuSans-75" transform="translate(324.853516 0)"/>
      <use xlink:href="#DejaVuSans-6f" transform="translate(388.232422 0)"/>
      <use xlink:href="#DejaVuSans-75" transform="translate(449.414062 0)"/>
      <use xlink:href="#DejaVuSans-73" transform="translate(512.792969 0)"/>
      <use xlink:href="#DejaVuSans-20" transform="translate(564.892578 0)"/>
      <use xlink:href="#DejaVuSans-52" transform="translate(596.679688 0)"/>
      <use xlink:href="#DejaVuSans-61" transform="translate(663.912109 0)"/>
      <use xlink:href="#DejaVuSans-6e" transform="translate(725.191406 0)"/>
      <use xlink:href="#DejaVuSans-64" transform="translate(788.570312 0)"/>
      <use xlink:href="#DejaVuSans-6f" transform="translate(852.046875 0)"/>
      <use xlink:href="#DejaVuSans-6d" transform="translate(913.228516 0)"/>
      <use xlink:href="#DejaVuSans-20" transform="translate(1010.640625 0)"/>
      <use xlink:href="#DejaVuSans-28" transform="translate(1042.427734 0)"/>
      <use xlink:href="#DejaVuSans-63" transform="translate(1081.441406 0)"/>
      <use xlink:href="#DejaVuSans-6f" transform="translate(1136.421875 0)"/>
      <use xlink:href="#DejaVuSans-6e" transform="translate(1197.603516 0)"/>
      <use xlink:href="#DejaVuSans-74" transform="translate(1260.982422 0)"/>
      <use xlink:href="#DejaVuSans-72" transform="translate(1300.191406 0)"/>
      <use xlink:href="#DejaVuSans-6f" transform="translate(1339.054688 0)"/>
      <use xlink:href="#DejaVuSans-6c" transform="translate(1400.236328 0)"/>
      <use xlink:href="#DejaVuSans-29" transform="translate(1428.019531 0)"/>
     </g>
    </g>
   </g>
  </g>
 </g>
 <defs>
  <clipPath id="pb1a5f37874">
   <rect x="46.965625" y="22.318125" width="758.714085" height="233.56"/>
  </clipPath>
 </defs>
</svg>
